<svg width="557" height="234" viewBox="0 0 557 234" fill="none" xmlns="http://www.w3.org/2000/svg">
<path d="M35.6676 228L33.2472 219.273H34.6321L36.3324 226.031H36.4134L38.1818 219.273H39.554L41.3224 226.036H41.4034L43.0994 219.273H44.4886L42.0639 228H40.7386L38.902 221.463H38.8338L36.9972 228H35.6676ZM45.6893 228V219.273H51.1609V220.406H47.006V223.065H50.8754V224.195H47.006V226.866H51.212V228H45.6893ZM55.745 228H52.9197V219.273H55.8345C56.6896 219.273 57.424 219.447 58.0376 219.797C58.6513 220.143 59.1214 220.642 59.4482 221.293C59.7777 221.94 59.9425 222.717 59.9425 223.624C59.9425 224.533 59.7763 225.314 59.4439 225.967C59.1143 226.621 58.6371 227.124 58.0121 227.476C57.3871 227.825 56.6314 228 55.745 228ZM54.2365 226.849H55.6726C56.3374 226.849 56.8899 226.724 57.3303 226.474C57.7706 226.222 58.1001 225.857 58.3189 225.379C58.5376 224.899 58.647 224.314 58.647 223.624C58.647 222.939 58.5376 222.358 58.3189 221.881C58.103 221.403 57.7805 221.041 57.3516 220.794C56.9226 220.547 56.3899 220.423 55.7536 220.423H54.2365V226.849ZM64.6364 228V227.045L67.5895 223.986C67.9048 223.653 68.1648 223.362 68.3693 223.112C68.5767 222.859 68.7315 222.619 68.8338 222.392C68.9361 222.165 68.9872 221.923 68.9872 221.668C68.9872 221.378 68.919 221.128 68.7827 220.918C68.6463 220.705 68.4602 220.541 68.2244 220.428C67.9886 220.311 67.723 220.253 67.4276 220.253C67.1151 220.253 66.8423 220.317 66.6094 220.445C66.3764 220.572 66.1974 220.753 66.0724 220.986C65.9474 221.219 65.8849 221.491 65.8849 221.804H64.6278C64.6278 221.273 64.75 220.808 64.9943 220.411C65.2386 220.013 65.5739 219.705 66 219.486C66.4261 219.264 66.9105 219.153 67.4531 219.153C68.0014 219.153 68.4844 219.263 68.902 219.482C69.3224 219.697 69.6506 219.993 69.8864 220.368C70.1222 220.74 70.2401 221.161 70.2401 221.629C70.2401 221.953 70.179 222.27 70.0568 222.58C69.9375 222.889 69.7287 223.234 69.4304 223.615C69.1321 223.993 68.7173 224.452 68.1861 224.991L66.4517 226.807V226.871H70.3807V228H64.6364ZM75.0341 228.145C74.3608 228.142 73.7855 227.964 73.3082 227.612C72.831 227.26 72.4659 226.747 72.2131 226.074C71.9602 225.401 71.8338 224.589 71.8338 223.641C71.8338 222.695 71.9602 221.886 72.2131 221.216C72.4688 220.545 72.8352 220.034 73.3125 219.682C73.7926 219.33 74.3665 219.153 75.0341 219.153C75.7017 219.153 76.2741 219.331 76.7514 219.686C77.2287 220.038 77.5938 220.55 77.8466 221.22C78.1023 221.888 78.2301 222.695 78.2301 223.641C78.2301 224.592 78.1037 225.405 77.8509 226.078C77.598 226.749 77.233 227.261 76.7557 227.616C76.2784 227.969 75.7045 228.145 75.0341 228.145ZM75.0341 227.007C75.625 227.007 76.0866 226.719 76.419 226.142C76.7543 225.565 76.9219 224.732 76.9219 223.641C76.9219 222.916 76.8452 222.304 76.6918 221.804C76.5412 221.301 76.3239 220.92 76.0398 220.662C75.7585 220.401 75.4233 220.27 75.0341 220.27C74.446 220.27 73.9844 220.56 73.6491 221.139C73.3139 221.719 73.1449 222.553 73.142 223.641C73.142 224.368 73.2173 224.983 73.3679 225.486C73.5213 225.986 73.7386 226.365 74.0199 226.624C74.3011 226.879 74.6392 227.007 75.0341 227.007Z" fill="#94A3B8"/>
<path d="M513.528 220.406V219.273H520.283V220.406H517.56V228H516.247V220.406H513.528ZM528.981 223.636C528.981 224.568 528.811 225.369 528.47 226.04C528.129 226.707 527.662 227.222 527.068 227.582C526.477 227.94 525.805 228.119 525.052 228.119C524.297 228.119 523.622 227.94 523.028 227.582C522.437 227.222 521.971 226.706 521.63 226.036C521.289 225.365 521.119 224.565 521.119 223.636C521.119 222.705 521.289 221.905 521.63 221.237C521.971 220.567 522.437 220.053 523.028 219.695C523.622 219.334 524.297 219.153 525.052 219.153C525.805 219.153 526.477 219.334 527.068 219.695C527.662 220.053 528.129 220.567 528.47 221.237C528.811 221.905 528.981 222.705 528.981 223.636ZM527.677 223.636C527.677 222.926 527.562 222.328 527.332 221.842C527.105 221.354 526.792 220.984 526.395 220.734C526 220.482 525.552 220.355 525.052 220.355C524.549 220.355 524.1 220.482 523.706 220.734C523.311 220.984 522.998 221.354 522.768 221.842C522.541 222.328 522.427 222.926 522.427 223.636C522.427 224.347 522.541 224.946 522.768 225.435C522.998 225.92 523.311 226.29 523.706 226.543C524.1 226.793 524.549 226.918 525.052 226.918C525.552 226.918 526 226.793 526.395 226.543C526.792 226.29 527.105 225.92 527.332 225.435C527.562 224.946 527.677 224.347 527.677 223.636ZM533.448 228H530.623V219.273H533.538C534.393 219.273 535.127 219.447 535.741 219.797C536.354 220.143 536.825 220.642 537.151 221.293C537.481 221.94 537.646 222.717 537.646 223.624C537.646 224.533 537.479 225.314 537.147 225.967C536.817 226.621 536.34 227.124 535.715 227.476C535.09 227.825 534.335 228 533.448 228ZM531.94 226.849H533.376C534.04 226.849 534.593 226.724 535.033 226.474C535.474 226.222 535.803 225.857 536.022 225.379C536.241 224.899 536.35 224.314 536.35 223.624C536.35 222.939 536.241 222.358 536.022 221.881C535.806 221.403 535.484 221.041 535.055 220.794C534.626 220.547 534.093 220.423 533.457 220.423H531.94V226.849ZM539.587 228H538.189L541.33 219.273H542.851L545.991 228H544.594L542.126 220.858H542.058L539.587 228ZM539.821 224.582H544.355V225.69H539.821V224.582ZM545.688 219.273H547.184L549.463 223.24H549.557L551.837 219.273H553.333L550.167 224.574V228H548.854V224.574L545.688 219.273Z" fill="#94A3B8"/>
<g clip-path="url(#clip0_448_3)">
<path d="M8.15057 152.273V161H6.82955V153.594H6.77841L4.69034 154.957V153.696L6.8679 152.273H8.15057ZM13.5497 161.145C12.8764 161.142 12.3011 160.964 11.8239 160.612C11.3466 160.26 10.9815 159.747 10.7287 159.074C10.4759 158.401 10.3494 157.589 10.3494 156.641C10.3494 155.695 10.4759 154.886 10.7287 154.216C10.9844 153.545 11.3509 153.034 11.8281 152.682C12.3082 152.33 12.8821 152.153 13.5497 152.153C14.2173 152.153 14.7898 152.331 15.267 152.686C15.7443 153.038 16.1094 153.55 16.3622 154.22C16.6179 154.888 16.7457 155.695 16.7457 156.641C16.7457 157.592 16.6193 158.405 16.3665 159.078C16.1136 159.749 15.7486 160.261 15.2713 160.616C14.794 160.969 14.2202 161.145 13.5497 161.145ZM13.5497 160.007C14.1406 160.007 14.6023 159.719 14.9347 159.142C15.2699 158.565 15.4375 157.732 15.4375 156.641C15.4375 155.916 15.3608 155.304 15.2074 154.804C15.0568 154.301 14.8395 153.92 14.5554 153.662C14.2741 153.401 13.9389 153.27 13.5497 153.27C12.9616 153.27 12.5 153.56 12.1648 154.139C11.8295 154.719 11.6605 155.553 11.6577 156.641C11.6577 157.368 11.733 157.983 11.8835 158.486C12.0369 158.986 12.2543 159.365 12.5355 159.624C12.8168 159.879 13.1548 160.007 13.5497 160.007ZM21.2958 161.145C20.6225 161.142 20.0472 160.964 19.57 160.612C19.0927 160.26 18.7276 159.747 18.4748 159.074C18.2219 158.401 18.0955 157.589 18.0955 156.641C18.0955 155.695 18.2219 154.886 18.4748 154.216C18.7305 153.545 19.0969 153.034 19.5742 152.682C20.0543 152.33 20.6282 152.153 21.2958 152.153C21.9634 152.153 22.5359 152.331 23.0131 152.686C23.4904 153.038 23.8555 153.55 24.1083 154.22C24.364 154.888 24.4918 155.695 24.4918 156.641C24.4918 157.592 24.3654 158.405 24.1126 159.078C23.8597 159.749 23.4947 160.261 23.0174 160.616C22.5401 160.969 21.9663 161.145 21.2958 161.145ZM21.2958 160.007C21.8867 160.007 22.3484 159.719 22.6808 159.142C23.016 158.565 23.1836 157.732 23.1836 156.641C23.1836 155.916 23.1069 155.304 22.9535 154.804C22.8029 154.301 22.5856 153.92 22.3015 153.662C22.0202 153.401 21.685 153.27 21.2958 153.27C20.7077 153.27 20.2461 153.56 19.9109 154.139C19.5756 154.719 19.4066 155.553 19.4038 156.641C19.4038 157.368 19.479 157.983 19.6296 158.486C19.783 158.986 20.0004 159.365 20.2816 159.624C20.5629 159.879 20.9009 160.007 21.2958 160.007Z" fill="#94A3B8"/>
<path d="M20.8778 209.145C20.2045 209.142 19.6293 208.964 19.152 208.612C18.6747 208.26 18.3097 207.747 18.0568 207.074C17.804 206.401 17.6776 205.589 17.6776 204.641C17.6776 203.695 17.804 202.886 18.0568 202.216C18.3125 201.545 18.679 201.034 19.1562 200.682C19.6364 200.33 20.2102 200.153 20.8778 200.153C21.5455 200.153 22.1179 200.331 22.5952 200.686C23.0724 201.038 23.4375 201.55 23.6903 202.22C23.946 202.888 24.0739 203.695 24.0739 204.641C24.0739 205.592 23.9474 206.405 23.6946 207.078C23.4418 207.749 23.0767 208.261 22.5994 208.616C22.1222 208.969 21.5483 209.145 20.8778 209.145ZM20.8778 208.007C21.4688 208.007 21.9304 207.719 22.2628 207.142C22.598 206.565 22.7656 205.732 22.7656 204.641C22.7656 203.916 22.6889 203.304 22.5355 202.804C22.3849 202.301 22.1676 201.92 21.8835 201.662C21.6023 201.401 21.267 201.27 20.8778 201.27C20.2898 201.27 19.8281 201.56 19.4929 202.139C19.1577 202.719 18.9886 203.553 18.9858 204.641C18.9858 205.368 19.0611 205.983 19.2116 206.486C19.3651 206.986 19.5824 207.365 19.8636 207.624C20.1449 207.879 20.483 208.007 20.8778 208.007Z" fill="#94A3B8"/>
<path d="M5.72017 111.119C5.18608 111.119 4.70597 111.017 4.27983 110.812C3.85653 110.605 3.51847 110.321 3.26562 109.96C3.01278 109.599 2.87784 109.188 2.8608 108.724H4.1392C4.17045 109.099 4.33665 109.408 4.63778 109.649C4.93892 109.891 5.29972 110.011 5.72017 110.011C6.0554 110.011 6.35227 109.935 6.6108 109.781C6.87216 109.625 7.0767 109.411 7.22443 109.138C7.375 108.865 7.45028 108.554 7.45028 108.205C7.45028 107.849 7.37358 107.533 7.22017 107.254C7.06676 106.976 6.85511 106.757 6.58523 106.598C6.31818 106.439 6.01136 106.358 5.66477 106.355C5.40057 106.355 5.13494 106.401 4.8679 106.491C4.60085 106.582 4.38494 106.702 4.22017 106.849L3.0142 106.67L3.50426 102.273H8.30256V103.402H4.59943L4.32244 105.844H4.37358C4.54403 105.679 4.76989 105.541 5.05114 105.43C5.33523 105.32 5.6392 105.264 5.96307 105.264C6.49432 105.264 6.96733 105.391 7.3821 105.643C7.79972 105.896 8.12784 106.241 8.36648 106.679C8.60795 107.114 8.72727 107.614 8.72443 108.179C8.72727 108.744 8.59943 109.249 8.34091 109.692C8.08523 110.135 7.73011 110.484 7.27557 110.74C6.82386 110.993 6.3054 111.119 5.72017 111.119ZM13.3192 111.145C12.646 111.142 12.0707 110.964 11.5934 110.612C11.1161 110.26 10.7511 109.747 10.4982 109.074C10.2454 108.401 10.119 107.589 10.119 106.641C10.119 105.695 10.2454 104.886 10.4982 104.216C10.7539 103.545 11.1204 103.034 11.5977 102.682C12.0778 102.33 12.6516 102.153 13.3192 102.153C13.9869 102.153 14.5593 102.331 15.0366 102.686C15.5138 103.038 15.8789 103.55 16.1317 104.22C16.3874 104.888 16.5153 105.695 16.5153 106.641C16.5153 107.592 16.3888 108.405 16.136 109.078C15.8832 109.749 15.5181 110.261 15.0408 110.616C14.5636 110.969 13.9897 111.145 13.3192 111.145ZM13.3192 110.007C13.9102 110.007 14.3718 109.719 14.7042 109.142C15.0394 108.565 15.207 107.732 15.207 106.641C15.207 105.916 15.1303 105.304 14.9769 104.804C14.8263 104.301 14.609 103.92 14.3249 103.662C14.0437 103.401 13.7085 103.27 13.3192 103.27C12.7312 103.27 12.2695 103.56 11.9343 104.139C11.5991 104.719 11.43 105.553 11.4272 106.641C11.4272 107.368 11.5025 107.983 11.6531 108.486C11.8065 108.986 12.0238 109.365 12.305 109.624C12.5863 109.879 12.9244 110.007 13.3192 110.007ZM21.0653 111.145C20.392 111.142 19.8168 110.964 19.3395 110.612C18.8622 110.26 18.4972 109.747 18.2443 109.074C17.9915 108.401 17.8651 107.589 17.8651 106.641C17.8651 105.695 17.9915 104.886 18.2443 104.216C18.5 103.545 18.8665 103.034 19.3438 102.682C19.8239 102.33 20.3977 102.153 21.0653 102.153C21.733 102.153 22.3054 102.331 22.7827 102.686C23.2599 103.038 23.625 103.55 23.8778 104.22C24.1335 104.888 24.2614 105.695 24.2614 106.641C24.2614 107.592 24.1349 108.405 23.8821 109.078C23.6293 109.749 23.2642 110.261 22.7869 110.616C22.3097 110.969 21.7358 111.145 21.0653 111.145ZM21.0653 110.007C21.6563 110.007 22.1179 109.719 22.4503 109.142C22.7855 108.565 22.9531 107.732 22.9531 106.641C22.9531 105.916 22.8764 105.304 22.723 104.804C22.5724 104.301 22.3551 103.92 22.071 103.662C21.7898 103.401 21.4545 103.27 21.0653 103.27C20.4773 103.27 20.0156 103.56 19.6804 104.139C19.3452 104.719 19.1761 105.553 19.1733 106.641C19.1733 107.368 19.2486 107.983 19.3991 108.486C19.5526 108.986 19.7699 109.365 20.0511 109.624C20.3324 109.879 20.6705 110.007 21.0653 110.007Z" fill="#94A3B8"/>
<path d="M15.1506 54.2727V63H13.8295V55.5938H13.7784L11.6903 56.9574V55.696L13.8679 54.2727H15.1506ZM17.6307 63V54.2727H18.9474V58.4403H19.054L22.7145 54.2727H24.3722L20.8523 58.2017L24.3849 63H22.7997L19.9787 59.1009L18.9474 60.2855V63H17.6307Z" fill="#94A3B8"/>
<path d="M4.15057 5.27273V14H2.82955V6.59375H2.77841L0.690341 7.95739V6.69602L2.8679 5.27273H4.15057ZM6.86399 14.081C6.63104 14.081 6.43075 13.9986 6.26314 13.8338C6.09553 13.6662 6.01172 13.4645 6.01172 13.2287C6.01172 12.9957 6.09553 12.7969 6.26314 12.6321C6.43075 12.4645 6.63104 12.3807 6.86399 12.3807C7.09695 12.3807 7.29723 12.4645 7.46484 12.6321C7.63246 12.7969 7.71626 12.9957 7.71626 13.2287C7.71626 13.3849 7.67649 13.5284 7.59695 13.6591C7.52024 13.7869 7.41797 13.8892 7.29013 13.9659C7.16229 14.0426 7.02024 14.081 6.86399 14.081ZM12.146 14.1193C11.6119 14.1193 11.1317 14.017 10.7056 13.8125C10.2823 13.6051 9.94425 13.321 9.69141 12.9602C9.43857 12.5994 9.30362 12.1875 9.28658 11.7244H10.565C10.5962 12.0994 10.7624 12.4077 11.0636 12.6491C11.3647 12.8906 11.7255 13.0114 12.146 13.0114C12.4812 13.0114 12.7781 12.9347 13.0366 12.7812C13.2979 12.625 13.5025 12.4105 13.6502 12.1378C13.8008 11.8651 13.8761 11.554 13.8761 11.2045C13.8761 10.8494 13.7994 10.5327 13.646 10.2543C13.4925 9.97585 13.2809 9.7571 13.011 9.59801C12.744 9.43892 12.4371 9.35795 12.0906 9.35511C11.8263 9.35511 11.5607 9.40057 11.2937 9.49148C11.0266 9.58239 10.8107 9.7017 10.646 9.84943L9.43999 9.67045L9.93004 5.27273H14.7283V6.40199H11.0252L10.7482 8.84375H10.7994C10.9698 8.67898 11.1957 8.54119 11.4769 8.4304C11.761 8.3196 12.065 8.2642 12.3888 8.2642C12.9201 8.2642 13.3931 8.39062 13.8079 8.64347C14.2255 8.89631 14.5536 9.24148 14.7923 9.67898C15.0337 10.1136 15.1531 10.6136 15.1502 11.179C15.1531 11.7443 15.0252 12.2486 14.7667 12.6918C14.511 13.1349 14.1559 13.4844 13.7013 13.7401C13.2496 13.9929 12.7312 14.1193 12.146 14.1193ZM16.826 14V5.27273H18.1428V9.44034H18.2493L21.9098 5.27273H23.5675L20.0476 9.2017L23.5803 14H21.995L19.174 10.1009L18.1428 11.2855V14H16.826Z" fill="#94A3B8"/>
</g>
<rect x="37" y="205" width="519" height="1" fill="#F1F5F9"/>
<rect x="37" y="156" width="519" height="1" fill="#F1F5F9"/>
<rect x="37" y="107" width="519" height="1" fill="#F1F5F9"/>
<rect x="37" y="58" width="519" height="1" fill="#F1F5F9"/>
<rect x="37" y="9" width="519" height="1" fill="#F1F5F9"/>
<path d="M37 148L52 122L70 114L87 171L102 159L119 143L135 148H152L167 178L185 156L202 202L220 171L235 102L270 114L284 85L306 114L317 152L351 133L368 108L384 133L401 148H416L433 171L451 152L466 96L484 89L501 108L513 122L527 108L543 117L555 85" stroke="#10B981" stroke-width="2"/>
<path d="M35 115L52 165L68 182L85 73L103 179L117 136L135 182L154 148L170 198H187L203 182L218 198L234 168L251 195L267 86L286 195L300 148L318 182L333 148L352 165H367L385 101L420 133L434 164L450 116L467 164L484 148L500 179H520L541 168L555 179" stroke="#38BDF8" stroke-width="2"/>
<path d="M37 169L59 176L76 169L89 173L108 153H124L141 125H159L173 144H222L245 131L261 135L275 153L297 137L323 147L341 151L359 131L391 125L408 94L426 77L461 85L476 69H494L520 41L540 37L556 46" stroke="#6366F1" stroke-width="2"/>
<defs>
<clipPath id="clip0_448_3">
<rect width="25" height="215" fill="white"/>
</clipPath>
</defs>
</svg>
