<svg width="212" height="212" viewBox="0 0 212 212" fill="none" xmlns="http://www.w3.org/2000/svg">
<circle cx="106" cy="106" r="106" fill="#3730A3"/>
<mask id="mask0_0_572" style="mask-type:luminance" maskUnits="userSpaceOnUse" x="0" y="0" width="212" height="212">
<circle cx="106" cy="106" r="106" fill="white"/>
</mask>
<g mask="url(#mask0_0_572)">
<mask id="path-3-inside-1_0_572" fill="white">
<path fill-rule="evenodd" clip-rule="evenodd" d="M192 66L74 92L43.8103 144.014C45.124 145.186 46 146.25 46 147C46 150 49 162 49 162L14 197L13.473 196.281L-9 235L192 318V66Z"/>
</mask>
<path fill-rule="evenodd" clip-rule="evenodd" d="M192 66L74 92L43.8103 144.014C45.124 145.186 46 146.25 46 147C46 150 49 162 49 162L14 197L13.473 196.281L-9 235L192 318V66Z" fill="#38BDF8"/>
<path d="M74 92L73.5696 90.0469L72.7114 90.236L72.2703 90.996L74 92ZM192 66H194V63.5113L191.57 64.0469L192 66ZM43.8103 144.014L42.0805 143.01L41.262 144.42L42.4784 145.506L43.8103 144.014ZM49 162L50.4142 163.414L51.2149 162.614L50.9403 161.515L49 162ZM14 197L12.3872 198.183L13.7658 200.063L15.4142 198.414L14 197ZM13.473 196.281L15.0858 195.099L13.2779 192.633L11.7433 195.277L13.473 196.281ZM-9 235L-10.7297 233.996L-11.8785 235.975L-9.76335 236.849L-9 235ZM192 318L191.237 319.849L194 320.99V318H192ZM74.4304 93.9531L192.43 67.9531L191.57 64.0469L73.5696 90.0469L74.4304 93.9531ZM45.54 145.018L75.7297 93.004L72.2703 90.996L42.0805 143.01L45.54 145.018ZM42.4784 145.506C43.0901 146.052 43.5309 146.513 43.8032 146.872C43.9379 147.05 44.0011 147.164 44.0251 147.216C44.0523 147.276 44 147.191 44 147H48C48 145.937 47.4295 145.035 46.9924 144.458C46.4982 143.805 45.8442 143.148 45.1421 142.522L42.4784 145.506ZM44 147C44 147.957 44.2235 149.441 44.501 150.967C44.7889 152.55 45.1701 154.36 45.5476 156.059C45.9258 157.761 46.3035 159.366 46.5865 160.545C46.728 161.135 46.8461 161.619 46.9288 161.956C46.9702 162.124 47.0028 162.256 47.0251 162.346C47.0362 162.391 47.0448 162.425 47.0507 162.449C47.0536 162.46 47.0558 162.469 47.0573 162.475C47.0581 162.479 47.0587 162.481 47.0591 162.482C47.0593 162.483 47.0594 162.484 47.0595 162.484C47.0596 162.485 47.0596 162.485 47.0597 162.485C47.0597 162.485 47.0597 162.485 49 162C50.9403 161.515 50.9403 161.515 50.9403 161.515C50.9403 161.515 50.9402 161.515 50.9402 161.515C50.9401 161.514 50.94 161.514 50.9398 161.513C50.9395 161.512 50.939 161.51 50.9383 161.507C50.937 161.502 50.9349 161.493 50.9321 161.482C50.9266 161.46 50.9184 161.427 50.9075 161.383C50.8859 161.296 50.854 161.167 50.8134 161.001C50.7321 160.67 50.6157 160.193 50.476 159.611C50.1965 158.447 49.8242 156.864 49.4524 155.191C49.0799 153.515 48.7111 151.762 48.4365 150.252C48.1515 148.684 48 147.543 48 147H44ZM47.5858 160.586L12.5858 195.586L15.4142 198.414L50.4142 163.414L47.5858 160.586ZM15.6128 195.817L15.0858 195.099L11.8602 197.464L12.3872 198.183L15.6128 195.817ZM-7.27025 236.004L15.2028 197.285L11.7433 195.277L-10.7297 233.996L-7.27025 236.004ZM192.763 316.151L-8.23665 233.151L-9.76335 236.849L191.237 319.849L192.763 316.151ZM190 66V318H194V66H190Z" fill="white" mask="url(#path-3-inside-1_0_572)"/>
<mask id="path-5-inside-2_0_572" fill="white">
<path fill-rule="evenodd" clip-rule="evenodd" d="M259 -40H106V150.634L149 147L203 201C203 201 195.656 207.215 190.733 212H259V-40Z"/>
</mask>
<path fill-rule="evenodd" clip-rule="evenodd" d="M259 -40H106V150.634L149 147L203 201C203 201 195.656 207.215 190.733 212H259V-40Z" fill="#6366F1"/>
<path d="M106 -40V-42H104V-40H106ZM259 -40H261V-42H259V-40ZM106 150.634H104V152.81L106.168 152.627L106 150.634ZM149 147L150.414 145.586L149.757 144.929L148.832 145.007L149 147ZM203 201L204.292 202.527L205.951 201.123L204.414 199.586L203 201ZM190.733 212L189.339 210.566L185.807 214H190.733V212ZM259 212V214H261V212H259ZM106 -38H259V-42H106V-38ZM108 150.634V-40H104V150.634H108ZM106.168 152.627L149.168 148.993L148.832 145.007L105.832 148.641L106.168 152.627ZM147.586 148.414L201.586 202.414L204.414 199.586L150.414 145.586L147.586 148.414ZM203 201C201.708 199.473 201.708 199.473 201.708 199.473C201.708 199.473 201.708 199.474 201.708 199.474C201.707 199.474 201.707 199.474 201.706 199.475C201.705 199.475 201.704 199.477 201.702 199.478C201.698 199.481 201.693 199.486 201.686 199.492C201.671 199.504 201.65 199.523 201.622 199.546C201.566 199.594 201.484 199.664 201.378 199.754C201.166 199.935 200.857 200.198 200.472 200.529C199.703 201.19 198.625 202.121 197.393 203.202C194.935 205.361 191.837 208.137 189.339 210.566L192.128 213.434C194.552 211.077 197.588 208.354 200.032 206.209C201.251 205.138 202.317 204.217 203.079 203.563C203.459 203.236 203.763 202.977 203.972 202.799C204.076 202.71 204.157 202.642 204.211 202.596C204.238 202.573 204.258 202.555 204.272 202.544C204.279 202.538 204.284 202.534 204.287 202.531C204.289 202.529 204.29 202.528 204.291 202.528C204.291 202.527 204.292 202.527 204.292 202.527C204.292 202.527 204.292 202.527 204.292 202.527C204.292 202.527 204.292 202.527 203 201ZM259 210H190.733V214H259V210ZM257 -40V212H261V-40H257Z" fill="white" mask="url(#path-5-inside-2_0_572)"/>
<circle cx="106" cy="106" r="82" fill="white"/>
</g>
</svg>
