<svg width="351" height="89" viewBox="0 0 351 89" fill="none" xmlns="http://www.w3.org/2000/svg">
<rect x="1" width="349" height="88" fill="#F8FAFC"/>
<rect x="1" y="88" width="349" height="1" fill="#F1F5F9"/>
<path fill-rule="evenodd" clip-rule="evenodd" d="M1 34C1 34 28 34 28 34L47 51L65 47L86 56H115L133 69L147 60L165 64L181 72L196 60H204L220 44L228 53H239L251 64L268 69L281 64L288 45L303 38L314 21L330 17L342 28L350 21V88H1C1 88 1 34 1 34Z" fill="#3B82F6" fill-opacity="0.08"/>
<path d="M1 17L28 34L39 39H50L77 44L86 51H97L109 39L122 51H140L159 29L170 60H196L220 69H231L243 72L268 51H280L294 69L299 51L311 39L318 34L328 39H336L350 51" stroke="#CBD5E1" stroke-width="2"/>
<path d="M1 34C5 34 28 34 28 34L47 51L65 47L86 56H115L133 69L147 60L165 64L181 72L196 60H204L220 44L228 53H239L251 64L268 69L281 64L288 45L303 38L314 21L330 17L342 28L350 21" stroke="#6366F1" stroke-width="2"/>
</svg>
