<svg width="557" height="234" viewBox="0 0 557 234" fill="none" xmlns="http://www.w3.org/2000/svg">
<path d="M35.6676 228L33.2472 219.273H34.6321L36.3324 226.031H36.4134L38.1818 219.273H39.554L41.3224 226.036H41.4034L43.0994 219.273H44.4886L42.0639 228H40.7386L38.902 221.463H38.8338L36.9972 228H35.6676ZM45.6893 228V219.273H51.1609V220.406H47.006V223.065H50.8754V224.195H47.006V226.866H51.212V228H45.6893ZM55.745 228H52.9197V219.273H55.8345C56.6896 219.273 57.424 219.447 58.0376 219.797C58.6513 220.143 59.1214 220.642 59.4482 221.293C59.7777 221.94 59.9425 222.717 59.9425 223.624C59.9425 224.533 59.7763 225.314 59.4439 225.967C59.1143 226.621 58.6371 227.124 58.0121 227.476C57.3871 227.825 56.6314 228 55.745 228ZM54.2365 226.849H55.6726C56.3374 226.849 56.8899 226.724 57.3303 226.474C57.7706 226.222 58.1001 225.857 58.3189 225.379C58.5376 224.899 58.647 224.314 58.647 223.624C58.647 222.939 58.5376 222.358 58.3189 221.881C58.103 221.403 57.7805 221.041 57.3516 220.794C56.9226 220.547 56.3899 220.423 55.7536 220.423H54.2365V226.849ZM64.6364 228V227.045L67.5895 223.986C67.9048 223.653 68.1648 223.362 68.3693 223.112C68.5767 222.859 68.7315 222.619 68.8338 222.392C68.9361 222.165 68.9872 221.923 68.9872 221.668C68.9872 221.378 68.919 221.128 68.7827 220.918C68.6463 220.705 68.4602 220.541 68.2244 220.428C67.9886 220.311 67.723 220.253 67.4276 220.253C67.1151 220.253 66.8423 220.317 66.6094 220.445C66.3764 220.572 66.1974 220.753 66.0724 220.986C65.9474 221.219 65.8849 221.491 65.8849 221.804H64.6278C64.6278 221.273 64.75 220.808 64.9943 220.411C65.2386 220.013 65.5739 219.705 66 219.486C66.4261 219.264 66.9105 219.153 67.4531 219.153C68.0014 219.153 68.4844 219.263 68.902 219.482C69.3224 219.697 69.6506 219.993 69.8864 220.368C70.1222 220.74 70.2401 221.161 70.2401 221.629C70.2401 221.953 70.179 222.27 70.0568 222.58C69.9375 222.889 69.7287 223.234 69.4304 223.615C69.1321 223.993 68.7173 224.452 68.1861 224.991L66.4517 226.807V226.871H70.3807V228H64.6364ZM75.0341 228.145C74.3608 228.142 73.7855 227.964 73.3082 227.612C72.831 227.26 72.4659 226.747 72.2131 226.074C71.9602 225.401 71.8338 224.589 71.8338 223.641C71.8338 222.695 71.9602 221.886 72.2131 221.216C72.4688 220.545 72.8352 220.034 73.3125 219.682C73.7926 219.33 74.3665 219.153 75.0341 219.153C75.7017 219.153 76.2741 219.331 76.7514 219.686C77.2287 220.038 77.5938 220.55 77.8466 221.22C78.1023 221.888 78.2301 222.695 78.2301 223.641C78.2301 224.592 78.1037 225.405 77.8509 226.078C77.598 226.749 77.233 227.261 76.7557 227.616C76.2784 227.969 75.7045 228.145 75.0341 228.145ZM75.0341 227.007C75.625 227.007 76.0866 226.719 76.419 226.142C76.7543 225.565 76.9219 224.732 76.9219 223.641C76.9219 222.916 76.8452 222.304 76.6918 221.804C76.5412 221.301 76.3239 220.92 76.0398 220.662C75.7585 220.401 75.4233 220.27 75.0341 220.27C74.446 220.27 73.9844 220.56 73.6491 221.139C73.3139 221.719 73.1449 222.553 73.142 223.641C73.142 224.368 73.2173 224.983 73.3679 225.486C73.5213 225.986 73.7386 226.365 74.0199 226.624C74.3011 226.879 74.6392 227.007 75.0341 227.007Z" fill="#94A3B8"/>
<path d="M513.528 220.406V219.273H520.283V220.406H517.56V228H516.247V220.406H513.528ZM528.981 223.636C528.981 224.568 528.811 225.369 528.47 226.04C528.129 226.707 527.662 227.222 527.068 227.582C526.477 227.94 525.805 228.119 525.052 228.119C524.297 228.119 523.622 227.94 523.028 227.582C522.437 227.222 521.971 226.706 521.63 226.036C521.289 225.365 521.119 224.565 521.119 223.636C521.119 222.705 521.289 221.905 521.63 221.237C521.971 220.567 522.437 220.053 523.028 219.695C523.622 219.334 524.297 219.153 525.052 219.153C525.805 219.153 526.477 219.334 527.068 219.695C527.662 220.053 528.129 220.567 528.47 221.237C528.811 221.905 528.981 222.705 528.981 223.636ZM527.677 223.636C527.677 222.926 527.562 222.328 527.332 221.842C527.105 221.354 526.792 220.984 526.395 220.734C526 220.482 525.552 220.355 525.052 220.355C524.549 220.355 524.1 220.482 523.706 220.734C523.311 220.984 522.998 221.354 522.768 221.842C522.541 222.328 522.427 222.926 522.427 223.636C522.427 224.347 522.541 224.946 522.768 225.435C522.998 225.92 523.311 226.29 523.706 226.543C524.1 226.793 524.549 226.918 525.052 226.918C525.552 226.918 526 226.793 526.395 226.543C526.792 226.29 527.105 225.92 527.332 225.435C527.562 224.946 527.677 224.347 527.677 223.636ZM533.448 228H530.623V219.273H533.538C534.393 219.273 535.127 219.447 535.741 219.797C536.354 220.143 536.825 220.642 537.151 221.293C537.481 221.94 537.646 222.717 537.646 223.624C537.646 224.533 537.479 225.314 537.147 225.967C536.817 226.621 536.34 227.124 535.715 227.476C535.09 227.825 534.335 228 533.448 228ZM531.94 226.849H533.376C534.04 226.849 534.593 226.724 535.033 226.474C535.474 226.222 535.803 225.857 536.022 225.379C536.241 224.899 536.35 224.314 536.35 223.624C536.35 222.939 536.241 222.358 536.022 221.881C535.806 221.403 535.484 221.041 535.055 220.794C534.626 220.547 534.093 220.423 533.457 220.423H531.94V226.849ZM539.587 228H538.189L541.33 219.273H542.851L545.991 228H544.594L542.126 220.858H542.058L539.587 228ZM539.821 224.582H544.355V225.69H539.821V224.582ZM545.688 219.273H547.184L549.463 223.24H549.557L551.837 219.273H553.333L550.167 224.574V228H548.854V224.574L545.688 219.273Z" fill="#94A3B8"/>
<g clip-path="url(#clip0_448_2)">
<path d="M3.53267 162.091V151.182H4.23153V162.091H3.53267ZM5.71875 154.565C5.6733 154.162 5.4858 153.849 5.15625 153.628C4.8267 153.403 4.41193 153.291 3.91193 153.291C3.55398 153.291 3.24432 153.348 2.98295 153.462C2.72159 153.572 2.51847 153.726 2.37358 153.922C2.23153 154.115 2.16051 154.335 2.16051 154.582C2.16051 154.79 2.20881 154.969 2.3054 155.119C2.40483 155.27 2.53409 155.396 2.69318 155.499C2.85511 155.598 3.02841 155.682 3.21307 155.75C3.39773 155.815 3.57528 155.869 3.74574 155.912L4.59801 156.134C4.87642 156.202 5.16193 156.294 5.45455 156.411C5.74716 156.527 6.01847 156.68 6.26847 156.871C6.51847 157.061 6.72017 157.297 6.87358 157.578C7.02983 157.859 7.10795 158.196 7.10795 158.588C7.10795 159.082 6.98011 159.521 6.72443 159.905C6.47159 160.288 6.10369 160.591 5.62074 160.812C5.14063 161.034 4.55966 161.145 3.87784 161.145C3.22443 161.145 2.65909 161.041 2.18182 160.834C1.70455 160.626 1.33097 160.332 1.06108 159.952C0.791193 159.568 0.642045 159.114 0.613636 158.588H1.93466C1.96023 158.903 2.0625 159.166 2.24148 159.376C2.4233 159.584 2.65483 159.739 2.93608 159.841C3.22017 159.94 3.53125 159.99 3.86932 159.99C4.24148 159.99 4.57244 159.932 4.86222 159.815C5.15483 159.696 5.38494 159.531 5.55256 159.321C5.72017 159.108 5.80398 158.859 5.80398 158.575C5.80398 158.317 5.73011 158.105 5.58239 157.94C5.4375 157.776 5.24006 157.639 4.99006 157.531C4.7429 157.423 4.46307 157.328 4.15057 157.246L3.11932 156.964C2.42045 156.774 1.86648 156.494 1.45739 156.125C1.05114 155.756 0.848011 155.267 0.848011 154.659C0.848011 154.156 0.984375 153.717 1.2571 153.342C1.52983 152.967 1.89915 152.676 2.36506 152.469C2.83097 152.259 3.35653 152.153 3.94176 152.153C4.53267 152.153 5.05398 152.257 5.50568 152.464C5.96023 152.672 6.31818 152.957 6.57955 153.321C6.84091 153.682 6.97727 154.097 6.98864 154.565H5.71875ZM11.8732 152.273V161H10.5522V153.594H10.5011L8.413 154.957V153.696L10.5906 152.273H11.8732ZM17.2724 161.145C16.5991 161.142 16.0238 160.964 15.5465 160.612C15.0692 160.26 14.7042 159.747 14.4513 159.074C14.1985 158.401 14.0721 157.589 14.0721 156.641C14.0721 155.695 14.1985 154.886 14.4513 154.216C14.707 153.545 15.0735 153.034 15.5508 152.682C16.0309 152.33 16.6048 152.153 17.2724 152.153C17.94 152.153 18.5124 152.331 18.9897 152.686C19.467 153.038 19.832 153.55 20.0849 154.22C20.3406 154.888 20.4684 155.695 20.4684 156.641C20.4684 157.592 20.342 158.405 20.0891 159.078C19.8363 159.749 19.4712 160.261 18.994 160.616C18.5167 160.969 17.9428 161.145 17.2724 161.145ZM17.2724 160.007C17.8633 160.007 18.3249 159.719 18.6573 159.142C18.9925 158.565 19.1602 157.732 19.1602 156.641C19.1602 155.916 19.0835 155.304 18.93 154.804C18.7795 154.301 18.5621 153.92 18.2781 153.662C17.9968 153.401 17.6616 153.27 17.2724 153.27C16.6843 153.27 16.2227 153.56 15.8874 154.139C15.5522 154.719 15.3832 155.553 15.3803 156.641C15.3803 157.368 15.4556 157.983 15.6062 158.486C15.7596 158.986 15.9769 159.365 16.2582 159.624C16.5394 159.879 16.8775 160.007 17.2724 160.007Z" fill="#94A3B8"/>
<path d="M8.53267 210.091V199.182H9.23153V210.091H8.53267ZM10.7188 202.565C10.6733 202.162 10.4858 201.849 10.1562 201.628C9.8267 201.403 9.41193 201.291 8.91193 201.291C8.55398 201.291 8.24432 201.348 7.98295 201.462C7.72159 201.572 7.51847 201.726 7.37358 201.922C7.23153 202.115 7.16051 202.335 7.16051 202.582C7.16051 202.79 7.20881 202.969 7.3054 203.119C7.40483 203.27 7.53409 203.396 7.69318 203.499C7.85511 203.598 8.02841 203.682 8.21307 203.75C8.39773 203.815 8.57528 203.869 8.74574 203.912L9.59801 204.134C9.87642 204.202 10.1619 204.294 10.4545 204.411C10.7472 204.527 11.0185 204.68 11.2685 204.871C11.5185 205.061 11.7202 205.297 11.8736 205.578C12.0298 205.859 12.108 206.196 12.108 206.588C12.108 207.082 11.9801 207.521 11.7244 207.905C11.4716 208.288 11.1037 208.591 10.6207 208.812C10.1406 209.034 9.55966 209.145 8.87784 209.145C8.22443 209.145 7.65909 209.041 7.18182 208.834C6.70455 208.626 6.33097 208.332 6.06108 207.952C5.79119 207.568 5.64205 207.114 5.61364 206.588H6.93466C6.96023 206.903 7.0625 207.166 7.24148 207.376C7.4233 207.584 7.65483 207.739 7.93608 207.841C8.22017 207.94 8.53125 207.99 8.86932 207.99C9.24148 207.99 9.57244 207.932 9.86222 207.815C10.1548 207.696 10.3849 207.531 10.5526 207.321C10.7202 207.108 10.804 206.859 10.804 206.575C10.804 206.317 10.7301 206.105 10.5824 205.94C10.4375 205.776 10.2401 205.639 9.99006 205.531C9.7429 205.423 9.46307 205.328 9.15057 205.246L8.11932 204.964C7.42045 204.774 6.86648 204.494 6.45739 204.125C6.05114 203.756 5.84801 203.267 5.84801 202.659C5.84801 202.156 5.98438 201.717 6.2571 201.342C6.52983 200.967 6.89915 200.676 7.36506 200.469C7.83097 200.259 8.35653 200.153 8.94176 200.153C9.53267 200.153 10.054 200.257 10.5057 200.464C10.9602 200.672 11.3182 200.957 11.5795 201.321C11.8409 201.682 11.9773 202.097 11.9886 202.565H10.7188ZM16.6005 209.145C15.9272 209.142 15.3519 208.964 14.8746 208.612C14.3974 208.26 14.0323 207.747 13.7795 207.074C13.5266 206.401 13.4002 205.589 13.4002 204.641C13.4002 203.695 13.5266 202.886 13.7795 202.216C14.0352 201.545 14.4016 201.034 14.8789 200.682C15.359 200.33 15.9329 200.153 16.6005 200.153C17.2681 200.153 17.8406 200.331 18.3178 200.686C18.7951 201.038 19.1602 201.55 19.413 202.22C19.6687 202.888 19.7965 203.695 19.7965 204.641C19.7965 205.592 19.6701 206.405 19.4173 207.078C19.1644 207.749 18.7994 208.261 18.3221 208.616C17.8448 208.969 17.271 209.145 16.6005 209.145ZM16.6005 208.007C17.1914 208.007 17.6531 207.719 17.9854 207.142C18.3207 206.565 18.4883 205.732 18.4883 204.641C18.4883 203.916 18.4116 203.304 18.2582 202.804C18.1076 202.301 17.8903 201.92 17.6062 201.662C17.3249 201.401 16.9897 201.27 16.6005 201.27C16.0124 201.27 15.5508 201.56 15.2156 202.139C14.8803 202.719 14.7113 203.553 14.7085 204.641C14.7085 205.368 14.7837 205.983 14.9343 206.486C15.0877 206.986 15.305 207.365 15.5863 207.624C15.8675 207.879 16.2056 208.007 16.6005 208.007Z" fill="#94A3B8"/>
<path d="M3.53267 112.091V101.182H4.23153V112.091H3.53267ZM5.71875 104.565C5.6733 104.162 5.4858 103.849 5.15625 103.628C4.8267 103.403 4.41193 103.291 3.91193 103.291C3.55398 103.291 3.24432 103.348 2.98295 103.462C2.72159 103.572 2.51847 103.726 2.37358 103.922C2.23153 104.115 2.16051 104.335 2.16051 104.582C2.16051 104.79 2.20881 104.969 2.3054 105.119C2.40483 105.27 2.53409 105.396 2.69318 105.499C2.85511 105.598 3.02841 105.682 3.21307 105.75C3.39773 105.815 3.57528 105.869 3.74574 105.912L4.59801 106.134C4.87642 106.202 5.16193 106.294 5.45455 106.411C5.74716 106.527 6.01847 106.68 6.26847 106.871C6.51847 107.061 6.72017 107.297 6.87358 107.578C7.02983 107.859 7.10795 108.196 7.10795 108.588C7.10795 109.082 6.98011 109.521 6.72443 109.905C6.47159 110.288 6.10369 110.591 5.62074 110.812C5.14063 111.034 4.55966 111.145 3.87784 111.145C3.22443 111.145 2.65909 111.041 2.18182 110.834C1.70455 110.626 1.33097 110.332 1.06108 109.952C0.791193 109.568 0.642045 109.114 0.613636 108.588H1.93466C1.96023 108.903 2.0625 109.166 2.24148 109.376C2.4233 109.584 2.65483 109.739 2.93608 109.841C3.22017 109.94 3.53125 109.99 3.86932 109.99C4.24148 109.99 4.57244 109.932 4.86222 109.815C5.15483 109.696 5.38494 109.531 5.55256 109.321C5.72017 109.108 5.80398 108.859 5.80398 108.575C5.80398 108.317 5.73011 108.105 5.58239 107.94C5.4375 107.776 5.24006 107.639 4.99006 107.531C4.7429 107.423 4.46307 107.328 4.15057 107.246L3.11932 106.964C2.42045 106.774 1.86648 106.494 1.45739 106.125C1.05114 105.756 0.848011 105.267 0.848011 104.659C0.848011 104.156 0.984375 103.717 1.2571 103.342C1.52983 102.967 1.89915 102.676 2.36506 102.469C2.83097 102.259 3.35653 102.153 3.94176 102.153C4.53267 102.153 5.05398 102.257 5.50568 102.464C5.96023 102.672 6.31818 102.957 6.57955 103.321C6.84091 103.682 6.97727 104.097 6.98864 104.565H5.71875ZM8.56214 111V110.045L11.5153 106.986C11.8306 106.653 12.0906 106.362 12.2951 106.112C12.5025 105.859 12.6573 105.619 12.7596 105.392C12.8619 105.165 12.913 104.923 12.913 104.668C12.913 104.378 12.8448 104.128 12.7085 103.918C12.5721 103.705 12.386 103.541 12.1502 103.428C11.9144 103.311 11.6488 103.253 11.3533 103.253C11.0408 103.253 10.7681 103.317 10.5352 103.445C10.3022 103.572 10.1232 103.753 9.99822 103.986C9.87322 104.219 9.81072 104.491 9.81072 104.804H8.55362C8.55362 104.273 8.67578 103.808 8.9201 103.411C9.16442 103.013 9.49964 102.705 9.92578 102.486C10.3519 102.264 10.8363 102.153 11.3789 102.153C11.9272 102.153 12.4102 102.263 12.8278 102.482C13.2482 102.697 13.5763 102.993 13.8121 103.368C14.0479 103.74 14.1658 104.161 14.1658 104.629C14.1658 104.953 14.1048 105.27 13.9826 105.58C13.8633 105.889 13.6545 106.234 13.3562 106.615C13.0579 106.993 12.6431 107.452 12.1119 107.991L10.3775 109.807V109.871H14.3065V111H8.56214ZM18.8022 111.119C18.2681 111.119 17.788 111.017 17.3619 110.812C16.9386 110.605 16.6005 110.321 16.3477 109.96C16.0948 109.599 15.9599 109.188 15.9428 108.724H17.2212C17.2525 109.099 17.4187 109.408 17.7198 109.649C18.021 109.891 18.3817 110.011 18.8022 110.011C19.1374 110.011 19.4343 109.935 19.6928 109.781C19.9542 109.625 20.1587 109.411 20.3065 109.138C20.457 108.865 20.5323 108.554 20.5323 108.205C20.5323 107.849 20.4556 107.533 20.3022 107.254C20.1488 106.976 19.9371 106.757 19.6673 106.598C19.4002 106.439 19.0934 106.358 18.7468 106.355C18.4826 106.355 18.217 106.401 17.9499 106.491C17.6829 106.582 17.467 106.702 17.3022 106.849L16.0962 106.67L16.5863 102.273H21.3846V103.402H17.6815L17.4045 105.844H17.4556C17.6261 105.679 17.8519 105.541 18.1332 105.43C18.4173 105.32 18.7212 105.264 19.0451 105.264C19.5763 105.264 20.0494 105.391 20.4641 105.643C20.8817 105.896 21.2099 106.241 21.4485 106.679C21.69 107.114 21.8093 107.614 21.8065 108.179C21.8093 108.744 21.6815 109.249 21.4229 109.692C21.1673 110.135 20.8121 110.484 20.3576 110.74C19.9059 110.993 19.3874 111.119 18.8022 111.119Z" fill="#94A3B8"/>
<path d="M3.53267 64.0909V53.1818H4.23153V64.0909H3.53267ZM5.71875 56.5653C5.6733 56.1619 5.4858 55.8494 5.15625 55.6278C4.8267 55.4034 4.41193 55.2912 3.91193 55.2912C3.55398 55.2912 3.24432 55.348 2.98295 55.4616C2.72159 55.5724 2.51847 55.7259 2.37358 55.9219C2.23153 56.1151 2.16051 56.3352 2.16051 56.5824C2.16051 56.7898 2.20881 56.9687 2.3054 57.1193C2.40483 57.2699 2.53409 57.3963 2.69318 57.4986C2.85511 57.598 3.02841 57.6818 3.21307 57.75C3.39773 57.8153 3.57528 57.8693 3.74574 57.9119L4.59801 58.1335C4.87642 58.2017 5.16193 58.294 5.45455 58.4105C5.74716 58.527 6.01847 58.6804 6.26847 58.8707C6.51847 59.0611 6.72017 59.2969 6.87358 59.5781C7.02983 59.8594 7.10795 60.196 7.10795 60.5881C7.10795 61.0824 6.98011 61.5213 6.72443 61.9048C6.47159 62.2884 6.10369 62.5909 5.62074 62.8125C5.14063 63.0341 4.55966 63.1449 3.87784 63.1449C3.22443 63.1449 2.65909 63.0412 2.18182 62.8338C1.70455 62.6264 1.33097 62.3324 1.06108 61.9517C0.791193 61.5682 0.642045 61.1136 0.613636 60.5881H1.93466C1.96023 60.9034 2.0625 61.1662 2.24148 61.3764C2.4233 61.5838 2.65483 61.7386 2.93608 61.8409C3.22017 61.9403 3.53125 61.9901 3.86932 61.9901C4.24148 61.9901 4.57244 61.9318 4.86222 61.8153C5.15483 61.696 5.38494 61.5312 5.55256 61.321C5.72017 61.108 5.80398 60.8594 5.80398 60.5753C5.80398 60.3168 5.73011 60.1051 5.58239 59.9403C5.4375 59.7756 5.24006 59.6392 4.99006 59.5312C4.7429 59.4233 4.46307 59.3281 4.15057 59.2457L3.11932 58.9645C2.42045 58.7741 1.86648 58.4943 1.45739 58.125C1.05114 57.7557 0.848011 57.267 0.848011 56.6591C0.848011 56.1562 0.984375 55.7173 1.2571 55.3423C1.52983 54.9673 1.89915 54.6761 2.36506 54.4688C2.83097 54.2585 3.35653 54.1534 3.94176 54.1534C4.53267 54.1534 5.05398 54.2571 5.50568 54.4645C5.96023 54.6719 6.31818 54.9574 6.57955 55.321C6.84091 55.6818 6.97727 56.0966 6.98864 56.5653H5.71875ZM11.4428 63.1193C10.9087 63.1193 10.4286 63.017 10.0025 62.8125C9.57919 62.6051 9.24112 62.321 8.98828 61.9602C8.73544 61.5994 8.6005 61.1875 8.58345 60.7244H9.86186C9.89311 61.0994 10.0593 61.4077 10.3604 61.6491C10.6616 61.8906 11.0224 62.0114 11.4428 62.0114C11.7781 62.0114 12.0749 61.9347 12.3335 61.7812C12.5948 61.625 12.7994 61.4105 12.9471 61.1378C13.0977 60.8651 13.1729 60.554 13.1729 60.2045C13.1729 59.8494 13.0962 59.5327 12.9428 59.2543C12.7894 58.9759 12.5778 58.7571 12.3079 58.598C12.0408 58.4389 11.734 58.358 11.3874 58.3551C11.1232 58.3551 10.8576 58.4006 10.5906 58.4915C10.3235 58.5824 10.1076 58.7017 9.94283 58.8494L8.73686 58.6705L9.22692 54.2727H14.0252V55.402H10.3221L10.0451 57.8438H10.0962C10.2667 57.679 10.4925 57.5412 10.7738 57.4304C11.0579 57.3196 11.3619 57.2642 11.6857 57.2642C12.217 57.2642 12.69 57.3906 13.1048 57.6435C13.5224 57.8963 13.8505 58.2415 14.0891 58.679C14.3306 59.1136 14.4499 59.6136 14.4471 60.179C14.4499 60.7443 14.3221 61.2486 14.0636 61.6918C13.8079 62.1349 13.4528 62.4844 12.9982 62.7401C12.5465 62.9929 12.0281 63.1193 11.4428 63.1193ZM19.0419 63.1449C18.3686 63.142 17.7933 62.9645 17.3161 62.6122C16.8388 62.2599 16.4737 61.7472 16.2209 61.0739C15.968 60.4006 15.8416 59.5895 15.8416 58.6406C15.8416 57.6946 15.968 56.8864 16.2209 56.2159C16.4766 55.5455 16.843 55.0341 17.3203 54.6818C17.8004 54.3295 18.3743 54.1534 19.0419 54.1534C19.7095 54.1534 20.282 54.331 20.7592 54.6861C21.2365 55.0384 21.6016 55.5497 21.8544 56.2202C22.1101 56.8878 22.2379 57.6946 22.2379 58.6406C22.2379 59.5923 22.1115 60.4048 21.8587 61.0781C21.6058 61.7486 21.2408 62.2614 20.7635 62.6165C20.2862 62.9688 19.7124 63.1449 19.0419 63.1449ZM19.0419 62.0071C19.6328 62.0071 20.0945 61.7188 20.4268 61.142C20.7621 60.5653 20.9297 59.7315 20.9297 58.6406C20.9297 57.9162 20.853 57.304 20.6996 56.804C20.549 56.3011 20.3317 55.9205 20.0476 55.6619C19.7663 55.4006 19.4311 55.2699 19.0419 55.2699C18.4538 55.2699 17.9922 55.5597 17.657 56.1392C17.3217 56.7187 17.1527 57.5526 17.1499 58.6406C17.1499 59.3679 17.2251 59.983 17.3757 60.4858C17.5291 60.9858 17.7464 61.3651 18.0277 61.6236C18.3089 61.8793 18.647 62.0071 19.0419 62.0071Z" fill="#94A3B8"/>
<path d="M3.53267 15.0909V4.18182H4.23153V15.0909H3.53267ZM5.71875 7.56534C5.6733 7.16193 5.4858 6.84943 5.15625 6.62784C4.8267 6.40341 4.41193 6.29119 3.91193 6.29119C3.55398 6.29119 3.24432 6.34801 2.98295 6.46165C2.72159 6.57244 2.51847 6.72585 2.37358 6.92188C2.23153 7.11506 2.16051 7.33523 2.16051 7.58239C2.16051 7.78977 2.20881 7.96875 2.3054 8.11932C2.40483 8.26989 2.53409 8.39631 2.69318 8.49858C2.85511 8.59801 3.02841 8.68182 3.21307 8.75C3.39773 8.81534 3.57528 8.86932 3.74574 8.91193L4.59801 9.13352C4.87642 9.2017 5.16193 9.29403 5.45455 9.41051C5.74716 9.52699 6.01847 9.6804 6.26847 9.87074C6.51847 10.0611 6.72017 10.2969 6.87358 10.5781C7.02983 10.8594 7.10795 11.196 7.10795 11.5881C7.10795 12.0824 6.98011 12.5213 6.72443 12.9048C6.47159 13.2884 6.10369 13.5909 5.62074 13.8125C5.14063 14.0341 4.55966 14.1449 3.87784 14.1449C3.22443 14.1449 2.65909 14.0412 2.18182 13.8338C1.70455 13.6264 1.33097 13.3324 1.06108 12.9517C0.791193 12.5682 0.642045 12.1136 0.613636 11.5881H1.93466C1.96023 11.9034 2.0625 12.1662 2.24148 12.3764C2.4233 12.5838 2.65483 12.7386 2.93608 12.8409C3.22017 12.9403 3.53125 12.9901 3.86932 12.9901C4.24148 12.9901 4.57244 12.9318 4.86222 12.8153C5.15483 12.696 5.38494 12.5312 5.55256 12.321C5.72017 12.108 5.80398 11.8594 5.80398 11.5753C5.80398 11.3168 5.73011 11.1051 5.58239 10.9403C5.4375 10.7756 5.24006 10.6392 4.99006 10.5312C4.7429 10.4233 4.46307 10.3281 4.15057 10.2457L3.11932 9.96449C2.42045 9.77415 1.86648 9.49432 1.45739 9.125C1.05114 8.75568 0.848011 8.26705 0.848011 7.65909C0.848011 7.15625 0.984375 6.71733 1.2571 6.34233C1.52983 5.96733 1.89915 5.67614 2.36506 5.46875C2.83097 5.25852 3.35653 5.15341 3.94176 5.15341C4.53267 5.15341 5.05398 5.2571 5.50568 5.46449C5.96023 5.67188 6.31818 5.95739 6.57955 6.32102C6.84091 6.68182 6.97727 7.09659 6.98864 7.56534H5.71875ZM8.85618 14L12.6658 6.46591V6.40199H8.25959V5.27273H14.0295V6.44034L10.2326 14H8.85618ZM18.2749 14.1193C17.7408 14.1193 17.2607 14.017 16.8345 13.8125C16.4112 13.6051 16.0732 13.321 15.8203 12.9602C15.5675 12.5994 15.4325 12.1875 15.4155 11.7244H16.6939C16.7251 12.0994 16.8913 12.4077 17.1925 12.6491C17.4936 12.8906 17.8544 13.0114 18.2749 13.0114C18.6101 13.0114 18.907 12.9347 19.1655 12.7812C19.4268 12.625 19.6314 12.4105 19.7791 12.1378C19.9297 11.8651 20.005 11.554 20.005 11.2045C20.005 10.8494 19.9283 10.5327 19.7749 10.2543C19.6214 9.97585 19.4098 9.7571 19.1399 9.59801C18.8729 9.43892 18.5661 9.35795 18.2195 9.35511C17.9553 9.35511 17.6896 9.40057 17.4226 9.49148C17.1555 9.58239 16.9396 9.7017 16.7749 9.84943L15.5689 9.67045L16.0589 5.27273H20.8572V6.40199H17.1541L16.8771 8.84375H16.9283C17.0987 8.67898 17.3246 8.54119 17.6058 8.4304C17.8899 8.3196 18.1939 8.2642 18.5178 8.2642C19.049 8.2642 19.522 8.39062 19.9368 8.64347C20.3544 8.89631 20.6825 9.24148 20.9212 9.67898C21.1626 10.1136 21.282 10.6136 21.2791 11.179C21.282 11.7443 21.1541 12.2486 20.8956 12.6918C20.6399 13.1349 20.2848 13.4844 19.8303 13.7401C19.3786 13.9929 18.8601 14.1193 18.2749 14.1193Z" fill="#94A3B8"/>
</g>
<rect x="35" y="205" width="521" height="1" fill="#F1F5F9"/>
<rect x="35" y="156" width="521" height="1" fill="#F1F5F9"/>
<rect x="35" y="107" width="521" height="1" fill="#F1F5F9"/>
<rect x="35" y="58" width="521" height="1" fill="#F1F5F9"/>
<rect x="35" y="9" width="521" height="1" fill="#F1F5F9"/>
<path d="M36 122L53 172L69 189L86 80L104 186L118 143L136 189L155 155L171 205H188L204 189L235 175L268 93L301 155L319 189L334 155L353 172H368L386 108L421 140L435 171L451 123L468 171L485 155L501 186H521L542 175L556 186" stroke="#CBD5E1" stroke-width="2"/>
<path fill-rule="evenodd" clip-rule="evenodd" d="M35 82L52 58L69 122L85 136L101 139L116 114L134 126L150 152L167 136L183 160L215 117L231 147L251 122L265 156L284 142L296 147L333 136L347 147L363 86L382 122L402 147L411 152L428 103L445 147L461 122L479 138L492 136L514 167L527 156L537 162L554 144L556 147V205H35V82Z" fill="#3B82F6" fill-opacity="0.08"/>
<path d="M35 82L52 58L69 122L85 136L101 139L116 114L134 126L150 152L167 136L183 160L215 117L231 147L251 122L265 156L284 142L296 147L333 136L347 147L363 86L382 122L402 147L411 152L428 103L445 147L461 122L479 138L492 136L514 167L527 156L537 162L554 144L556 147" stroke="#6366F1" stroke-width="2"/>
<defs>
<clipPath id="clip0_448_2">
<rect width="23" height="215" fill="white"/>
</clipPath>
</defs>
</svg>
