<svg width="351" height="89" viewBox="0 0 351 89" fill="none" xmlns="http://www.w3.org/2000/svg">
<rect x="1" width="349" height="88" fill="#F8FAFC"/>
<rect x="1" y="88" width="349" height="1" fill="#F1F5F9"/>
<path fill-rule="evenodd" clip-rule="evenodd" d="M1 39L17 48L29 39L46 51L54 55L67 51L78 59H97L113 64H127L139 71L161 64L186 71L198 64H210L220 55L236 39L247 64L261 67L271 77L292 67L300 71L318 67L330 17L342 59L350 55V89H1V39Z" fill="#3B82F6" fill-opacity="0.08"/>
<path d="M1 28L29 47H67L79 50L97 62L113 50L124 55L145 47L158 39L176 77H186L198 58L215 67L227 72H245L261 62H274L292 67L307 47L318 39L332 47L350 39" stroke="#CBD5E1" stroke-width="2"/>
<path d="M1 39L17 48L29 39L46 51L54 55L67 51L78 59H97L113 64H127L139 71L161 64L186 71L198 64H210L220 55L236 39L247 64L261 67L271 77L292 67L300 71L318 67L330 17L342 59L350 55" stroke="#6366F1" stroke-width="2"/>
</svg>
