<svg width="555" height="234" viewBox="0 0 555 234" fill="none" xmlns="http://www.w3.org/2000/svg">
<g clip-path="url(#clip0_0_709)">
<path d="M4.71307 156.082V157.19H0.84375V156.082H4.71307ZM9.08736 162.091V151.182H9.78622V162.091H9.08736ZM11.2734 154.565C11.228 154.162 11.0405 153.849 10.7109 153.628C10.3814 153.403 9.96662 153.291 9.46662 153.291C9.10866 153.291 8.79901 153.348 8.53764 153.462C8.27628 153.572 8.07315 153.726 7.92827 153.922C7.78622 154.115 7.7152 154.335 7.7152 154.582C7.7152 154.79 7.76349 154.969 7.86009 155.119C7.95952 155.27 8.08878 155.396 8.24787 155.499C8.4098 155.598 8.5831 155.682 8.76776 155.75C8.95241 155.815 9.12997 155.869 9.30043 155.912L10.1527 156.134C10.4311 156.202 10.7166 156.294 11.0092 156.411C11.3018 156.527 11.5732 156.68 11.8232 156.871C12.0732 157.061 12.2749 157.297 12.4283 157.578C12.5845 157.859 12.6626 158.196 12.6626 158.588C12.6626 159.082 12.5348 159.521 12.2791 159.905C12.0263 160.288 11.6584 160.591 11.1754 160.812C10.6953 161.034 10.1143 161.145 9.43253 161.145C8.77912 161.145 8.21378 161.041 7.73651 160.834C7.25923 160.626 6.88565 160.332 6.61577 159.952C6.34588 159.568 6.19673 159.114 6.16832 158.588H7.48935C7.51491 158.903 7.61719 159.166 7.79616 159.376C7.97798 159.584 8.20952 159.739 8.49077 159.841C8.77486 159.94 9.08594 159.99 9.42401 159.99C9.79616 159.99 10.1271 159.932 10.4169 159.815C10.7095 159.696 10.9396 159.531 11.1072 159.321C11.2749 159.108 11.3587 158.859 11.3587 158.575C11.3587 158.317 11.2848 158.105 11.1371 157.94C10.9922 157.776 10.7947 157.639 10.5447 157.531C10.2976 157.423 10.0178 157.328 9.70526 157.246L8.67401 156.964C7.97514 156.774 7.42116 156.494 7.01207 156.125C6.60582 155.756 6.4027 155.267 6.4027 154.659C6.4027 154.156 6.53906 153.717 6.81179 153.342C7.08452 152.967 7.45384 152.676 7.91974 152.469C8.38565 152.259 8.91122 152.153 9.49645 152.153C10.0874 152.153 10.6087 152.257 11.0604 152.464C11.5149 152.672 11.8729 152.957 12.1342 153.321C12.3956 153.682 12.532 154.097 12.5433 154.565H11.2734ZM16.9975 161.119C16.4634 161.119 15.9833 161.017 15.5572 160.812C15.1339 160.605 14.7958 160.321 14.543 159.96C14.2901 159.599 14.1552 159.188 14.1381 158.724H15.4165C15.4478 159.099 15.614 159.408 15.9151 159.649C16.2163 159.891 16.5771 160.011 16.9975 160.011C17.3327 160.011 17.6296 159.935 17.8881 159.781C18.1495 159.625 18.354 159.411 18.5018 159.138C18.6523 158.865 18.7276 158.554 18.7276 158.205C18.7276 157.849 18.6509 157.533 18.4975 157.254C18.3441 156.976 18.1325 156.757 17.8626 156.598C17.5955 156.439 17.2887 156.358 16.9421 156.355C16.6779 156.355 16.4123 156.401 16.1452 156.491C15.8782 156.582 15.6623 156.702 15.4975 156.849L14.2915 156.67L14.7816 152.273H19.5799V153.402H15.8768L15.5998 155.844H15.6509C15.8214 155.679 16.0472 155.541 16.3285 155.43C16.6126 155.32 16.9165 155.264 17.2404 155.264C17.7717 155.264 18.2447 155.391 18.6594 155.643C19.0771 155.896 19.4052 156.241 19.6438 156.679C19.8853 157.114 20.0046 157.614 20.0018 158.179C20.0046 158.744 19.8768 159.249 19.6183 159.692C19.3626 160.135 19.0075 160.484 18.5529 160.74C18.1012 160.993 17.5827 161.119 16.9975 161.119ZM21.6776 161V152.273H22.9943V156.44H23.1009L26.7614 152.273H28.419L24.8991 156.202L28.4318 161H26.8466L24.0256 157.101L22.9943 158.286V161H21.6776Z" fill="#94A3B8"/>
<path d="M4.71307 204.082V205.19H0.84375V204.082H4.71307ZM9.08736 210.091V199.182H9.78622V210.091H9.08736ZM11.2734 202.565C11.228 202.162 11.0405 201.849 10.7109 201.628C10.3814 201.403 9.96662 201.291 9.46662 201.291C9.10866 201.291 8.79901 201.348 8.53764 201.462C8.27628 201.572 8.07315 201.726 7.92827 201.922C7.78622 202.115 7.7152 202.335 7.7152 202.582C7.7152 202.79 7.76349 202.969 7.86009 203.119C7.95952 203.27 8.08878 203.396 8.24787 203.499C8.4098 203.598 8.5831 203.682 8.76776 203.75C8.95241 203.815 9.12997 203.869 9.30043 203.912L10.1527 204.134C10.4311 204.202 10.7166 204.294 11.0092 204.411C11.3018 204.527 11.5732 204.68 11.8232 204.871C12.0732 205.061 12.2749 205.297 12.4283 205.578C12.5845 205.859 12.6626 206.196 12.6626 206.588C12.6626 207.082 12.5348 207.521 12.2791 207.905C12.0263 208.288 11.6584 208.591 11.1754 208.812C10.6953 209.034 10.1143 209.145 9.43253 209.145C8.77912 209.145 8.21378 209.041 7.73651 208.834C7.25923 208.626 6.88565 208.332 6.61577 207.952C6.34588 207.568 6.19673 207.114 6.16832 206.588H7.48935C7.51491 206.903 7.61719 207.166 7.79616 207.376C7.97798 207.584 8.20952 207.739 8.49077 207.841C8.77486 207.94 9.08594 207.99 9.42401 207.99C9.79616 207.99 10.1271 207.932 10.4169 207.815C10.7095 207.696 10.9396 207.531 11.1072 207.321C11.2749 207.108 11.3587 206.859 11.3587 206.575C11.3587 206.317 11.2848 206.105 11.1371 205.94C10.9922 205.776 10.7947 205.639 10.5447 205.531C10.2976 205.423 10.0178 205.328 9.70526 205.246L8.67401 204.964C7.97514 204.774 7.42116 204.494 7.01207 204.125C6.60582 203.756 6.4027 203.267 6.4027 202.659C6.4027 202.156 6.53906 201.717 6.81179 201.342C7.08452 200.967 7.45384 200.676 7.91974 200.469C8.38565 200.259 8.91122 200.153 9.49645 200.153C10.0874 200.153 10.6087 200.257 11.0604 200.464C11.5149 200.672 11.8729 200.957 12.1342 201.321C12.3956 201.682 12.532 202.097 12.5433 202.565H11.2734ZM17.0657 209.119C16.4549 209.119 15.9151 209.014 15.4464 208.804C14.9805 208.594 14.6154 208.304 14.3512 207.935C14.087 207.565 13.9563 207.145 13.9592 206.673C13.9563 206.304 14.0316 205.964 14.185 205.655C14.3413 205.342 14.5529 205.082 14.82 204.875C15.087 204.665 15.3853 204.531 15.7148 204.474V204.423C15.2802 204.318 14.9322 204.085 14.6708 203.724C14.4094 203.364 14.2802 202.949 14.283 202.48C14.2802 202.034 14.3981 201.636 14.6367 201.287C14.8782 200.935 15.2092 200.658 15.6296 200.456C16.0501 200.254 16.5288 200.153 17.0657 200.153C17.5969 200.153 18.0714 200.256 18.489 200.46C18.9094 200.662 19.2404 200.939 19.4819 201.291C19.7234 201.641 19.8455 202.037 19.8484 202.48C19.8455 202.949 19.712 203.364 19.4478 203.724C19.1836 204.085 18.8398 204.318 18.4165 204.423V204.474C18.7433 204.531 19.0373 204.665 19.2987 204.875C19.5629 205.082 19.7731 205.342 19.9293 205.655C20.0884 205.964 20.1694 206.304 20.1722 206.673C20.1694 207.145 20.0359 207.565 19.7717 207.935C19.5075 208.304 19.141 208.594 18.6722 208.804C18.2063 209.014 17.6708 209.119 17.0657 209.119ZM17.0657 208.041C17.4265 208.041 17.739 207.982 18.0032 207.862C18.2674 207.74 18.4719 207.571 18.6168 207.355C18.7617 207.136 18.8356 206.881 18.8384 206.588C18.8356 206.284 18.756 206.016 18.5998 205.783C18.4464 205.55 18.2376 205.366 17.9734 205.233C17.7092 205.099 17.4066 205.033 17.0657 205.033C16.7219 205.033 16.4165 205.099 16.1495 205.233C15.8825 205.366 15.6722 205.55 15.5188 205.783C15.3654 206.016 15.2901 206.284 15.293 206.588C15.2901 206.881 15.3597 207.136 15.5018 207.355C15.6467 207.571 15.8526 207.74 16.1197 207.862C16.3867 207.982 16.7021 208.041 17.0657 208.041ZM17.0657 203.98C17.3555 203.98 17.6126 203.922 17.837 203.805C18.0614 203.689 18.2376 203.527 18.3654 203.32C18.4961 203.112 18.5629 202.869 18.5657 202.591C18.5629 202.318 18.4975 202.08 18.3697 201.875C18.2447 201.67 18.07 201.513 17.8455 201.402C17.6211 201.288 17.3612 201.232 17.0657 201.232C16.7646 201.232 16.5004 201.288 16.2731 201.402C16.0487 201.513 15.8739 201.67 15.7489 201.875C15.6239 202.08 15.5629 202.318 15.5657 202.591C15.5629 202.869 15.6254 203.112 15.7532 203.32C15.881 203.527 16.0572 203.689 16.2816 203.805C16.5089 203.922 16.7702 203.98 17.0657 203.98ZM21.8182 209V200.273H23.1349V204.44H23.2415L26.902 200.273H28.5597L25.0398 204.202L28.5724 209H26.9872L24.1662 205.101L23.1349 206.286V209H21.8182Z" fill="#94A3B8"/>
<path d="M11.5327 112.091V101.182H12.2315V112.091H11.5327ZM13.7188 104.565C13.6733 104.162 13.4858 103.849 13.1562 103.628C12.8267 103.403 12.4119 103.291 11.9119 103.291C11.554 103.291 11.2443 103.348 10.983 103.462C10.7216 103.572 10.5185 103.726 10.3736 103.922C10.2315 104.115 10.1605 104.335 10.1605 104.582C10.1605 104.79 10.2088 104.969 10.3054 105.119C10.4048 105.27 10.5341 105.396 10.6932 105.499C10.8551 105.598 11.0284 105.682 11.2131 105.75C11.3977 105.815 11.5753 105.869 11.7457 105.912L12.598 106.134C12.8764 106.202 13.1619 106.294 13.4545 106.411C13.7472 106.527 14.0185 106.68 14.2685 106.871C14.5185 107.061 14.7202 107.297 14.8736 107.578C15.0298 107.859 15.108 108.196 15.108 108.588C15.108 109.082 14.9801 109.521 14.7244 109.905C14.4716 110.288 14.1037 110.591 13.6207 110.812C13.1406 111.034 12.5597 111.145 11.8778 111.145C11.2244 111.145 10.6591 111.041 10.1818 110.834C9.70455 110.626 9.33097 110.332 9.06108 109.952C8.79119 109.568 8.64205 109.114 8.61364 108.588H9.93466C9.96023 108.903 10.0625 109.166 10.2415 109.376C10.4233 109.584 10.6548 109.739 10.9361 109.841C11.2202 109.94 11.5312 109.99 11.8693 109.99C12.2415 109.99 12.5724 109.932 12.8622 109.815C13.1548 109.696 13.3849 109.531 13.5526 109.321C13.7202 109.108 13.804 108.859 13.804 108.575C13.804 108.317 13.7301 108.105 13.5824 107.94C13.4375 107.776 13.2401 107.639 12.9901 107.531C12.7429 107.423 12.4631 107.328 12.1506 107.246L11.1193 106.964C10.4205 106.774 9.86648 106.494 9.45739 106.125C9.05114 105.756 8.84801 105.267 8.84801 104.659C8.84801 104.156 8.98438 103.717 9.2571 103.342C9.52983 102.967 9.89915 102.676 10.3651 102.469C10.831 102.259 11.3565 102.153 11.9418 102.153C12.5327 102.153 13.054 102.257 13.5057 102.464C13.9602 102.672 14.3182 102.957 14.5795 103.321C14.8409 103.682 14.9773 104.097 14.9886 104.565H13.7188ZM19.6005 111.145C18.9272 111.142 18.3519 110.964 17.8746 110.612C17.3974 110.26 17.0323 109.747 16.7795 109.074C16.5266 108.401 16.4002 107.589 16.4002 106.641C16.4002 105.695 16.5266 104.886 16.7795 104.216C17.0352 103.545 17.4016 103.034 17.8789 102.682C18.359 102.33 18.9329 102.153 19.6005 102.153C20.2681 102.153 20.8406 102.331 21.3178 102.686C21.7951 103.038 22.1602 103.55 22.413 104.22C22.6687 104.888 22.7965 105.695 22.7965 106.641C22.7965 107.592 22.6701 108.405 22.4173 109.078C22.1644 109.749 21.7994 110.261 21.3221 110.616C20.8448 110.969 20.271 111.145 19.6005 111.145ZM19.6005 110.007C20.1914 110.007 20.6531 109.719 20.9854 109.142C21.3207 108.565 21.4883 107.732 21.4883 106.641C21.4883 105.916 21.4116 105.304 21.2582 104.804C21.1076 104.301 20.8903 103.92 20.6062 103.662C20.3249 103.401 19.9897 103.27 19.6005 103.27C19.0124 103.27 18.5508 103.56 18.2156 104.139C17.8803 104.719 17.7113 105.553 17.7085 106.641C17.7085 107.368 17.7837 107.983 17.9343 108.486C18.0877 108.986 18.305 109.365 18.5863 109.624C18.8675 109.879 19.2056 110.007 19.6005 110.007Z" fill="#94A3B8"/>
<path d="M3.53267 64.0909V53.1818H4.23153V64.0909H3.53267ZM5.71875 56.5653C5.6733 56.1619 5.4858 55.8494 5.15625 55.6278C4.8267 55.4034 4.41193 55.2912 3.91193 55.2912C3.55398 55.2912 3.24432 55.348 2.98295 55.4616C2.72159 55.5724 2.51847 55.7259 2.37358 55.9219C2.23153 56.1151 2.16051 56.3352 2.16051 56.5824C2.16051 56.7898 2.20881 56.9687 2.3054 57.1193C2.40483 57.2699 2.53409 57.3963 2.69318 57.4986C2.85511 57.598 3.02841 57.6818 3.21307 57.75C3.39773 57.8153 3.57528 57.8693 3.74574 57.9119L4.59801 58.1335C4.87642 58.2017 5.16193 58.294 5.45455 58.4105C5.74716 58.527 6.01847 58.6804 6.26847 58.8707C6.51847 59.0611 6.72017 59.2969 6.87358 59.5781C7.02983 59.8594 7.10795 60.196 7.10795 60.5881C7.10795 61.0824 6.98011 61.5213 6.72443 61.9048C6.47159 62.2884 6.10369 62.5909 5.62074 62.8125C5.14063 63.0341 4.55966 63.1449 3.87784 63.1449C3.22443 63.1449 2.65909 63.0412 2.18182 62.8338C1.70455 62.6264 1.33097 62.3324 1.06108 61.9517C0.791193 61.5682 0.642045 61.1136 0.613636 60.5881H1.93466C1.96023 60.9034 2.0625 61.1662 2.24148 61.3764C2.4233 61.5838 2.65483 61.7386 2.93608 61.8409C3.22017 61.9403 3.53125 61.9901 3.86932 61.9901C4.24148 61.9901 4.57244 61.9318 4.86222 61.8153C5.15483 61.696 5.38494 61.5312 5.55256 61.321C5.72017 61.108 5.80398 60.8594 5.80398 60.5753C5.80398 60.3168 5.73011 60.1051 5.58239 59.9403C5.4375 59.7756 5.24006 59.6392 4.99006 59.5312C4.7429 59.4233 4.46307 59.3281 4.15057 59.2457L3.11932 58.9645C2.42045 58.7741 1.86648 58.4943 1.45739 58.125C1.05114 57.7557 0.848011 57.267 0.848011 56.6591C0.848011 56.1562 0.984375 55.7173 1.2571 55.3423C1.52983 54.9673 1.89915 54.6761 2.36506 54.4688C2.83097 54.2585 3.35653 54.1534 3.94176 54.1534C4.53267 54.1534 5.05398 54.2571 5.50568 54.4645C5.96023 54.6719 6.31818 54.9574 6.57955 55.321C6.84091 55.6818 6.97727 56.0966 6.98864 56.5653H5.71875ZM11.4428 63.1193C10.9087 63.1193 10.4286 63.017 10.0025 62.8125C9.57919 62.6051 9.24112 62.321 8.98828 61.9602C8.73544 61.5994 8.6005 61.1875 8.58345 60.7244H9.86186C9.89311 61.0994 10.0593 61.4077 10.3604 61.6491C10.6616 61.8906 11.0224 62.0114 11.4428 62.0114C11.7781 62.0114 12.0749 61.9347 12.3335 61.7812C12.5948 61.625 12.7994 61.4105 12.9471 61.1378C13.0977 60.8651 13.1729 60.554 13.1729 60.2045C13.1729 59.8494 13.0962 59.5327 12.9428 59.2543C12.7894 58.9759 12.5778 58.7571 12.3079 58.598C12.0408 58.4389 11.734 58.358 11.3874 58.3551C11.1232 58.3551 10.8576 58.4006 10.5906 58.4915C10.3235 58.5824 10.1076 58.7017 9.94283 58.8494L8.73686 58.6705L9.22692 54.2727H14.0252V55.402H10.3221L10.0451 57.8438H10.0962C10.2667 57.679 10.4925 57.5412 10.7738 57.4304C11.0579 57.3196 11.3619 57.2642 11.6857 57.2642C12.217 57.2642 12.69 57.3906 13.1048 57.6435C13.5224 57.8963 13.8505 58.2415 14.0891 58.679C14.3306 59.1136 14.4499 59.6136 14.4471 60.179C14.4499 60.7443 14.3221 61.2486 14.0636 61.6918C13.8079 62.1349 13.4528 62.4844 12.9982 62.7401C12.5465 62.9929 12.0281 63.1193 11.4428 63.1193ZM16.1229 63V54.2727H17.4396V58.4403H17.5462L21.2067 54.2727H22.8643L19.3445 58.2017L22.8771 63H21.2919L18.4709 59.1009L17.4396 60.2855V63H16.1229Z" fill="#94A3B8"/>
<path d="M3.53267 15.0909V4.18182H4.23153V15.0909H3.53267ZM5.71875 7.56534C5.6733 7.16193 5.4858 6.84943 5.15625 6.62784C4.8267 6.40341 4.41193 6.29119 3.91193 6.29119C3.55398 6.29119 3.24432 6.34801 2.98295 6.46165C2.72159 6.57244 2.51847 6.72585 2.37358 6.92188C2.23153 7.11506 2.16051 7.33523 2.16051 7.58239C2.16051 7.78977 2.20881 7.96875 2.3054 8.11932C2.40483 8.26989 2.53409 8.39631 2.69318 8.49858C2.85511 8.59801 3.02841 8.68182 3.21307 8.75C3.39773 8.81534 3.57528 8.86932 3.74574 8.91193L4.59801 9.13352C4.87642 9.2017 5.16193 9.29403 5.45455 9.41051C5.74716 9.52699 6.01847 9.6804 6.26847 9.87074C6.51847 10.0611 6.72017 10.2969 6.87358 10.5781C7.02983 10.8594 7.10795 11.196 7.10795 11.5881C7.10795 12.0824 6.98011 12.5213 6.72443 12.9048C6.47159 13.2884 6.10369 13.5909 5.62074 13.8125C5.14063 14.0341 4.55966 14.1449 3.87784 14.1449C3.22443 14.1449 2.65909 14.0412 2.18182 13.8338C1.70455 13.6264 1.33097 13.3324 1.06108 12.9517C0.791193 12.5682 0.642045 12.1136 0.613636 11.5881H1.93466C1.96023 11.9034 2.0625 12.1662 2.24148 12.3764C2.4233 12.5838 2.65483 12.7386 2.93608 12.8409C3.22017 12.9403 3.53125 12.9901 3.86932 12.9901C4.24148 12.9901 4.57244 12.9318 4.86222 12.8153C5.15483 12.696 5.38494 12.5312 5.55256 12.321C5.72017 12.108 5.80398 11.8594 5.80398 11.5753C5.80398 11.3168 5.73011 11.1051 5.58239 10.9403C5.4375 10.7756 5.24006 10.6392 4.99006 10.5312C4.7429 10.4233 4.46307 10.3281 4.15057 10.2457L3.11932 9.96449C2.42045 9.77415 1.86648 9.49432 1.45739 9.125C1.05114 8.75568 0.848011 8.26705 0.848011 7.65909C0.848011 7.15625 0.984375 6.71733 1.2571 6.34233C1.52983 5.96733 1.89915 5.67614 2.36506 5.46875C2.83097 5.25852 3.35653 5.15341 3.94176 5.15341C4.53267 5.15341 5.05398 5.2571 5.50568 5.46449C5.96023 5.67188 6.31818 5.95739 6.57955 6.32102C6.84091 6.68182 6.97727 7.09659 6.98864 7.56534H5.71875ZM11.511 14.1193C10.9002 14.1193 10.3604 14.0142 9.89169 13.804C9.42578 13.5937 9.06072 13.304 8.79652 12.9347C8.53232 12.5653 8.40163 12.1449 8.40447 11.6733C8.40163 11.304 8.47692 10.9645 8.63033 10.6548C8.78658 10.3423 8.99822 10.0824 9.26527 9.875C9.53232 9.66477 9.83061 9.53125 10.1602 9.47443V9.4233C9.7255 9.31818 9.37749 9.08523 9.11612 8.72443C8.85476 8.36364 8.7255 7.94886 8.72834 7.48011C8.7255 7.03409 8.84339 6.63636 9.08203 6.28693C9.32351 5.93466 9.65447 5.65767 10.0749 5.45597C10.4954 5.25426 10.9741 5.15341 11.511 5.15341C12.0423 5.15341 12.5167 5.25568 12.9343 5.46023C13.3548 5.66193 13.6857 5.93892 13.9272 6.29119C14.1687 6.64062 14.2908 7.03693 14.2937 7.48011C14.2908 7.94886 14.1573 8.36364 13.8931 8.72443C13.6289 9.08523 13.2852 9.31818 12.8619 9.4233V9.47443C13.1886 9.53125 13.4826 9.66477 13.744 9.875C14.0082 10.0824 14.2184 10.3423 14.3746 10.6548C14.5337 10.9645 14.6147 11.304 14.6175 11.6733C14.6147 12.1449 14.4812 12.5653 14.217 12.9347C13.9528 13.304 13.5863 13.5937 13.1175 13.804C12.6516 14.0142 12.1161 14.1193 11.511 14.1193ZM11.511 13.0412C11.8718 13.0412 12.1843 12.9815 12.4485 12.8622C12.7127 12.7401 12.9173 12.571 13.0621 12.3551C13.207 12.1364 13.2809 11.8807 13.2837 11.5881C13.2809 11.2841 13.2013 11.0156 13.0451 10.7827C12.8917 10.5497 12.6829 10.3665 12.4187 10.233C12.1545 10.0994 11.8519 10.0327 11.511 10.0327C11.1673 10.0327 10.8619 10.0994 10.5948 10.233C10.3278 10.3665 10.1175 10.5497 9.96413 10.7827C9.81072 11.0156 9.73544 11.2841 9.73828 11.5881C9.73544 11.8807 9.80504 12.1364 9.94709 12.3551C10.092 12.571 10.2979 12.7401 10.565 12.8622C10.832 12.9815 11.1474 13.0412 11.511 13.0412ZM11.511 8.98011C11.8008 8.98011 12.0579 8.92187 12.2823 8.8054C12.5067 8.68892 12.6829 8.52699 12.8107 8.3196C12.9414 8.11222 13.0082 7.86932 13.011 7.59091C13.0082 7.31818 12.9428 7.07955 12.815 6.875C12.69 6.67045 12.5153 6.51278 12.2908 6.40199C12.0664 6.28835 11.8065 6.23153 11.511 6.23153C11.2099 6.23153 10.9457 6.28835 10.7184 6.40199C10.494 6.51278 10.3192 6.67045 10.1942 6.875C10.0692 7.07955 10.0082 7.31818 10.011 7.59091C10.0082 7.86932 10.0707 8.11222 10.1985 8.3196C10.3263 8.52699 10.5025 8.68892 10.7269 8.8054C10.9542 8.92187 11.2156 8.98011 11.511 8.98011ZM16.2635 14V5.27273H17.5803V9.44034H17.6868L21.3473 5.27273H23.005L19.4851 9.2017L23.0178 14H21.4325L18.6115 10.1009L17.5803 11.2855V14H16.2635Z" fill="#94A3B8"/>
</g>
<rect x="41" y="205" width="514" height="1" fill="#F1F5F9"/>
<rect x="41" y="156" width="514" height="1" fill="#F1F5F9"/>
<rect x="41" y="107" width="514" height="1" fill="#E2E8F0"/>
<rect x="41" y="58" width="514" height="1" fill="#F1F5F9"/>
<rect x="41" y="9" width="514" height="1" fill="#F1F5F9"/>
<path d="M64.7841 228H61.9588V219.273H64.8736C65.7287 219.273 66.4631 219.447 67.0767 219.797C67.6903 220.143 68.1605 220.642 68.4872 221.293C68.8168 221.94 68.9815 222.717 68.9815 223.624C68.9815 224.533 68.8153 225.314 68.483 225.967C68.1534 226.621 67.6761 227.124 67.0511 227.476C66.4261 227.825 65.6705 228 64.7841 228ZM63.2756 226.849H64.7116C65.3764 226.849 65.929 226.724 66.3693 226.474C66.8097 226.222 67.1392 225.857 67.358 225.379C67.5767 224.899 67.6861 224.314 67.6861 223.624C67.6861 222.939 67.5767 222.358 67.358 221.881C67.142 221.403 66.8196 221.041 66.3906 220.794C65.9616 220.547 65.429 220.423 64.7926 220.423H63.2756V226.849ZM70.619 228V219.273H76.0906V220.406H71.9357V223.065H75.805V224.195H71.9357V226.866H76.1417V228H70.619ZM85.098 222.111H83.7685C83.7173 221.827 83.6222 221.577 83.483 221.361C83.3438 221.145 83.1733 220.962 82.9716 220.811C82.7699 220.661 82.544 220.547 82.294 220.47C82.0469 220.393 81.7841 220.355 81.5057 220.355C81.0028 220.355 80.5526 220.482 80.1548 220.734C79.7599 220.987 79.4474 221.358 79.2173 221.847C78.9901 222.335 78.8764 222.932 78.8764 223.636C78.8764 224.347 78.9901 224.946 79.2173 225.435C79.4474 225.923 79.7614 226.293 80.1591 226.543C80.5568 226.793 81.0043 226.918 81.5014 226.918C81.777 226.918 82.0384 226.881 82.2855 226.807C82.5355 226.73 82.7614 226.618 82.9631 226.47C83.1648 226.322 83.3352 226.142 83.4744 225.929C83.6165 225.713 83.7145 225.466 83.7685 225.188L85.098 225.192C85.027 225.621 84.8892 226.016 84.6847 226.376C84.483 226.734 84.223 227.044 83.9048 227.305C83.5895 227.564 83.2287 227.764 82.8224 227.906C82.4162 228.048 81.973 228.119 81.4929 228.119C80.7372 228.119 80.0639 227.94 79.473 227.582C78.8821 227.222 78.4162 226.706 78.0753 226.036C77.7372 225.365 77.5682 224.565 77.5682 223.636C77.5682 222.705 77.7386 221.905 78.0795 221.237C78.4205 220.567 78.8864 220.053 79.4773 219.695C80.0682 219.334 80.7401 219.153 81.4929 219.153C81.956 219.153 82.3878 219.22 82.7884 219.354C83.1918 219.484 83.554 219.678 83.875 219.933C84.196 220.186 84.4616 220.496 84.6719 220.862C84.8821 221.226 85.0241 221.642 85.098 222.111ZM89.7301 228V227.045L92.6832 223.986C92.9986 223.653 93.2585 223.362 93.4631 223.112C93.6705 222.859 93.8253 222.619 93.9276 222.392C94.0298 222.165 94.081 221.923 94.081 221.668C94.081 221.378 94.0128 221.128 93.8764 220.918C93.7401 220.705 93.554 220.541 93.3182 220.428C93.0824 220.311 92.8168 220.253 92.5213 220.253C92.2088 220.253 91.9361 220.317 91.7031 220.445C91.4702 220.572 91.2912 220.753 91.1662 220.986C91.0412 221.219 90.9787 221.491 90.9787 221.804H89.7216C89.7216 221.273 89.8438 220.808 90.0881 220.411C90.3324 220.013 90.6676 219.705 91.0938 219.486C91.5199 219.264 92.0043 219.153 92.5469 219.153C93.0952 219.153 93.5781 219.263 93.9957 219.482C94.4162 219.697 94.7443 219.993 94.9801 220.368C95.2159 220.74 95.3338 221.161 95.3338 221.629C95.3338 221.953 95.2727 222.27 95.1506 222.58C95.0313 222.889 94.8224 223.234 94.5241 223.615C94.2259 223.993 93.8111 224.452 93.2798 224.991L91.5455 226.807V226.871H95.4744V228H89.7301ZM100.128 228.145C99.4545 228.142 98.8793 227.964 98.402 227.612C97.9247 227.26 97.5597 226.747 97.3068 226.074C97.054 225.401 96.9276 224.589 96.9276 223.641C96.9276 222.695 97.054 221.886 97.3068 221.216C97.5625 220.545 97.929 220.034 98.4062 219.682C98.8864 219.33 99.4602 219.153 100.128 219.153C100.795 219.153 101.368 219.331 101.845 219.686C102.322 220.038 102.688 220.55 102.94 221.22C103.196 221.888 103.324 222.695 103.324 223.641C103.324 224.592 103.197 225.405 102.945 226.078C102.692 226.749 102.327 227.261 101.849 227.616C101.372 227.969 100.798 228.145 100.128 228.145ZM100.128 227.007C100.719 227.007 101.18 226.719 101.513 226.142C101.848 225.565 102.016 224.732 102.016 223.641C102.016 222.916 101.939 222.304 101.786 221.804C101.635 221.301 101.418 220.92 101.134 220.662C100.852 220.401 100.517 220.27 100.128 220.27C99.5398 220.27 99.0781 220.56 98.7429 221.139C98.4077 221.719 98.2386 222.553 98.2358 223.641C98.2358 224.368 98.3111 224.983 98.4616 225.486C98.6151 225.986 98.8324 226.365 99.1136 226.624C99.3949 226.879 99.733 227.007 100.128 227.007Z" fill="#94A3B8"/>
<rect x="67" y="46" width="32" height="62" fill="#6366F1"/>
<rect x="67" y="108" width="32" height="34" fill="#C7D2FE"/>
<g clip-path="url(#clip1_0_709)">
<path d="M157.351 219.273H158.663V225.46C158.663 226.02 158.553 226.499 158.331 226.896C158.112 227.294 157.804 227.598 157.406 227.808C157.009 228.016 156.543 228.119 156.009 228.119C155.517 228.119 155.075 228.03 154.683 227.851C154.294 227.672 153.986 227.412 153.759 227.071C153.534 226.727 153.422 226.31 153.422 225.818H154.73C154.73 226.06 154.786 226.268 154.896 226.445C155.01 226.621 155.165 226.759 155.361 226.858C155.56 226.955 155.787 227.003 156.043 227.003C156.321 227.003 156.557 226.945 156.75 226.828C156.946 226.709 157.095 226.534 157.197 226.304C157.3 226.074 157.351 225.793 157.351 225.46V219.273ZM161.317 228H159.919L163.06 219.273H164.581L167.722 228H166.324L163.857 220.858H163.789L161.317 228ZM161.551 224.582H166.086V225.69H161.551V224.582ZM176.026 219.273V228H174.816L170.38 221.599H170.299V228H168.982V219.273H170.201L174.641 225.682H174.722V219.273H176.026ZM181.004 228V227.045L183.957 223.986C184.272 223.653 184.532 223.362 184.737 223.112C184.944 222.859 185.099 222.619 185.201 222.392C185.303 222.165 185.354 221.923 185.354 221.668C185.354 221.378 185.286 221.128 185.15 220.918C185.013 220.705 184.827 220.541 184.592 220.428C184.356 220.311 184.09 220.253 183.795 220.253C183.482 220.253 183.21 220.317 182.977 220.445C182.744 220.572 182.565 220.753 182.44 220.986C182.315 221.219 182.252 221.491 182.252 221.804H180.995C180.995 221.273 181.117 220.808 181.362 220.411C181.606 220.013 181.941 219.705 182.367 219.486C182.793 219.264 183.278 219.153 183.82 219.153C184.369 219.153 184.852 219.263 185.269 219.482C185.69 219.697 186.018 219.993 186.254 220.368C186.489 220.74 186.607 221.161 186.607 221.629C186.607 221.953 186.546 222.27 186.424 222.58C186.305 222.889 186.096 223.234 185.798 223.615C185.499 223.993 185.085 224.452 184.553 224.991L182.819 226.807V226.871H186.748V228H181.004ZM191.674 219.273V228H190.353V220.594H190.302L188.214 221.957V220.696L190.391 219.273H191.674Z" fill="#94A3B8"/>
<rect x="157" y="22" width="32" height="86" fill="#6366F1"/>
<rect x="157" y="108" width="32" height="23" fill="#C7D2FE"/>
</g>
<g clip-path="url(#clip2_0_709)">
<path d="M237.959 228V219.273H243.371V220.406H239.276V223.065H242.983V224.195H239.276V228H237.959ZM244.99 228V219.273H250.462V220.406H246.307V223.065H250.176V224.195H246.307V226.866H250.513V228H244.99ZM252.221 228V219.273H255.417C256.036 219.273 256.549 219.375 256.955 219.58C257.361 219.781 257.665 220.055 257.867 220.402C258.069 220.746 258.169 221.134 258.169 221.565C258.169 221.929 258.103 222.236 257.969 222.486C257.836 222.733 257.657 222.932 257.432 223.082C257.211 223.23 256.966 223.338 256.699 223.406V223.491C256.989 223.506 257.272 223.599 257.547 223.773C257.826 223.943 258.056 224.186 258.238 224.501C258.419 224.817 258.51 225.2 258.51 225.652C258.51 226.098 258.405 226.499 258.195 226.854C257.988 227.206 257.667 227.486 257.232 227.693C256.797 227.898 256.242 228 255.566 228H252.221ZM253.537 226.871H255.438C256.069 226.871 256.52 226.749 256.793 226.504C257.066 226.26 257.202 225.955 257.202 225.588C257.202 225.312 257.132 225.06 256.993 224.83C256.854 224.599 256.655 224.416 256.397 224.28C256.141 224.143 255.837 224.075 255.485 224.075H253.537V226.871ZM253.537 223.048H255.301C255.597 223.048 255.863 222.991 256.098 222.878C256.337 222.764 256.526 222.605 256.665 222.401C256.807 222.193 256.878 221.949 256.878 221.668C256.878 221.307 256.752 221.004 256.499 220.76C256.246 220.516 255.858 220.393 255.336 220.393H253.537V223.048ZM263.129 228V227.045L266.082 223.986C266.397 223.653 266.657 223.362 266.862 223.112C267.069 222.859 267.224 222.619 267.326 222.392C267.428 222.165 267.479 221.923 267.479 221.668C267.479 221.378 267.411 221.128 267.275 220.918C267.138 220.705 266.952 220.541 266.717 220.428C266.481 220.311 266.215 220.253 265.92 220.253C265.607 220.253 265.335 220.317 265.102 220.445C264.869 220.572 264.69 220.753 264.565 220.986C264.44 221.219 264.377 221.491 264.377 221.804H263.12C263.12 221.273 263.242 220.808 263.487 220.411C263.731 220.013 264.066 219.705 264.492 219.486C264.918 219.264 265.403 219.153 265.945 219.153C266.494 219.153 266.977 219.263 267.394 219.482C267.815 219.697 268.143 219.993 268.379 220.368C268.614 220.74 268.732 221.161 268.732 221.629C268.732 221.953 268.671 222.27 268.549 222.58C268.43 222.889 268.221 223.234 267.923 223.615C267.624 223.993 267.21 224.452 266.678 224.991L264.944 226.807V226.871H268.873V228H263.129ZM273.799 219.273V228H272.478V220.594H272.427L270.339 221.957V220.696L272.516 219.273H273.799Z" fill="#94A3B8"/>
<rect x="241" y="41" width="32" height="67" fill="#6366F1"/>
<rect x="241" y="108" width="32" height="60" fill="#C7D2FE"/>
</g>
<g clip-path="url(#clip3_0_709)">
<path d="M321.959 219.273H323.557L326.335 226.057H326.438L329.216 219.273H330.814V228H329.561V221.685H329.48L326.906 227.987H325.866L323.293 221.68H323.212V228H321.959V219.273ZM333.466 228H332.068L335.208 219.273H336.73L339.87 228H338.473L336.005 220.858H335.937L333.466 228ZM333.7 224.582H338.234V225.69H333.7V224.582ZM341.131 228V219.273H344.241C344.918 219.273 345.479 219.389 345.925 219.622C346.374 219.855 346.709 220.178 346.93 220.589C347.152 220.999 347.263 221.472 347.263 222.009C347.263 222.543 347.151 223.013 346.926 223.419C346.705 223.822 346.369 224.136 345.92 224.361C345.474 224.585 344.913 224.697 344.237 224.697H341.881V223.564H344.118C344.544 223.564 344.891 223.503 345.158 223.381C345.428 223.259 345.625 223.081 345.75 222.848C345.875 222.615 345.938 222.335 345.938 222.009C345.938 221.679 345.874 221.393 345.746 221.152C345.621 220.911 345.423 220.726 345.153 220.598C344.886 220.467 344.536 220.402 344.101 220.402H342.447V228H341.131ZM345.439 224.062L347.595 228H346.095L343.982 224.062H345.439ZM351.922 228V227.045L354.875 223.986C355.19 223.653 355.45 223.362 355.654 223.112C355.862 222.859 356.017 222.619 356.119 222.392C356.221 222.165 356.272 221.923 356.272 221.668C356.272 221.378 356.204 221.128 356.068 220.918C355.931 220.705 355.745 220.541 355.51 220.428C355.274 220.311 355.008 220.253 354.713 220.253C354.4 220.253 354.127 220.317 353.895 220.445C353.662 220.572 353.483 220.753 353.358 220.986C353.233 221.219 353.17 221.491 353.17 221.804H351.913C351.913 221.273 352.035 220.808 352.279 220.411C352.524 220.013 352.859 219.705 353.285 219.486C353.711 219.264 354.196 219.153 354.738 219.153C355.287 219.153 355.77 219.263 356.187 219.482C356.608 219.697 356.936 219.993 357.172 220.368C357.407 220.74 357.525 221.161 357.525 221.629C357.525 221.953 357.464 222.27 357.342 222.58C357.223 222.889 357.014 223.234 356.716 223.615C356.417 223.993 356.002 224.452 355.471 224.991L353.737 226.807V226.871H357.666V228H351.922ZM362.592 219.273V228H361.271V220.594H361.22L359.132 221.957V220.696L361.309 219.273H362.592Z" fill="#94A3B8"/>
<rect x="327" y="28" width="32" height="80" fill="#6366F1"/>
<rect x="327" y="108" width="32" height="30" fill="#C7D2FE"/>
</g>
<g clip-path="url(#clip4_0_709)">
<path d="M408.696 228H407.298L410.439 219.273H411.96L415.101 228H413.703L411.236 220.858H411.168L408.696 228ZM408.93 224.582H413.464V225.69H408.93V224.582ZM416.361 228V219.273H419.472C420.151 219.273 420.713 219.396 421.159 219.643C421.605 219.891 421.939 220.229 422.161 220.658C422.382 221.084 422.493 221.564 422.493 222.098C422.493 222.635 422.381 223.118 422.157 223.547C421.935 223.973 421.6 224.311 421.151 224.561C420.705 224.808 420.144 224.932 419.468 224.932H417.328V223.815H419.348C419.777 223.815 420.125 223.741 420.392 223.594C420.659 223.443 420.855 223.239 420.98 222.98C421.105 222.722 421.168 222.428 421.168 222.098C421.168 221.768 421.105 221.476 420.98 221.22C420.855 220.964 420.658 220.764 420.388 220.619C420.121 220.474 419.769 220.402 419.331 220.402H417.678V228H416.361ZM424.037 228V219.273H427.148C427.824 219.273 428.385 219.389 428.831 219.622C429.28 219.855 429.615 220.178 429.837 220.589C430.058 220.999 430.169 221.472 430.169 222.009C430.169 222.543 430.057 223.013 429.832 223.419C429.611 223.822 429.276 224.136 428.827 224.361C428.381 224.585 427.82 224.697 427.143 224.697H424.787V223.564H427.024C427.45 223.564 427.797 223.503 428.064 223.381C428.334 223.259 428.531 223.081 428.656 222.848C428.781 222.615 428.844 222.335 428.844 222.009C428.844 221.679 428.78 221.393 428.652 221.152C428.527 220.911 428.33 220.726 428.06 220.598C427.793 220.467 427.442 220.402 427.007 220.402H425.354V228H424.037ZM428.345 224.062L430.501 228H429.001L426.888 224.062H428.345ZM434.828 228V227.045L437.781 223.986C438.096 223.653 438.356 223.362 438.561 223.112C438.768 222.859 438.923 222.619 439.025 222.392C439.127 222.165 439.179 221.923 439.179 221.668C439.179 221.378 439.11 221.128 438.974 220.918C438.838 220.705 438.652 220.541 438.416 220.428C438.18 220.311 437.914 220.253 437.619 220.253C437.306 220.253 437.034 220.317 436.801 220.445C436.568 220.572 436.389 220.753 436.264 220.986C436.139 221.219 436.076 221.491 436.076 221.804H434.819C434.819 221.273 434.941 220.808 435.186 220.411C435.43 220.013 435.765 219.705 436.191 219.486C436.618 219.264 437.102 219.153 437.645 219.153C438.193 219.153 438.676 219.263 439.093 219.482C439.514 219.697 439.842 219.993 440.078 220.368C440.314 220.74 440.431 221.161 440.431 221.629C440.431 221.953 440.37 222.27 440.248 222.58C440.129 222.889 439.92 223.234 439.622 223.615C439.324 223.993 438.909 224.452 438.377 224.991L436.643 226.807V226.871H440.572V228H434.828ZM445.498 219.273V228H444.177V220.594H444.126L442.038 221.957V220.696L444.216 219.273H445.498Z" fill="#94A3B8"/>
<rect x="411" y="56" width="32" height="52" fill="#6366F1"/>
<rect x="411" y="108" width="32" height="76" fill="#C7D2FE"/>
</g>
<path d="M491.959 219.273H493.557L496.335 226.057H496.438L499.216 219.273H500.814V228H499.561V221.685H499.48L496.906 227.987H495.866L493.293 221.68H493.212V228H491.959V219.273ZM503.466 228H502.068L505.208 219.273H506.73L509.87 228H508.473L506.005 220.858H505.937L503.466 228ZM503.7 224.582H508.234V225.69H503.7V224.582ZM509.567 219.273H511.062L513.342 223.24H513.436L515.716 219.273H517.212L514.045 224.574V228H512.733V224.574L509.567 219.273ZM521.511 228V227.045L524.464 223.986C524.78 223.653 525.04 223.362 525.244 223.112C525.452 222.859 525.607 222.619 525.709 222.392C525.811 222.165 525.862 221.923 525.862 221.668C525.862 221.378 525.794 221.128 525.658 220.918C525.521 220.705 525.335 220.541 525.099 220.428C524.864 220.311 524.598 220.253 524.303 220.253C523.99 220.253 523.717 220.317 523.484 220.445C523.251 220.572 523.072 220.753 522.947 220.986C522.822 221.219 522.76 221.491 522.76 221.804H521.503C521.503 221.273 521.625 220.808 521.869 220.411C522.114 220.013 522.449 219.705 522.875 219.486C523.301 219.264 523.786 219.153 524.328 219.153C524.876 219.153 525.359 219.263 525.777 219.482C526.197 219.697 526.526 219.993 526.761 220.368C526.997 220.74 527.115 221.161 527.115 221.629C527.115 221.953 527.054 222.27 526.932 222.58C526.813 222.889 526.604 223.234 526.305 223.615C526.007 223.993 525.592 224.452 525.061 224.991L523.327 226.807V226.871H527.256V228H521.511ZM532.182 219.273V228H530.861V220.594H530.81L528.722 221.957V220.696L530.899 219.273H532.182Z" fill="#94A3B8"/>
<rect x="497" y="24" width="32" height="84" fill="#6366F1"/>
<rect x="497" y="108" width="32" height="20" fill="#C7D2FE"/>
<defs>
<clipPath id="clip0_0_709">
<rect width="29" height="215" fill="white"/>
</clipPath>
<clipPath id="clip1_0_709">
<rect width="40" height="212" fill="white" transform="translate(153 22)"/>
</clipPath>
<clipPath id="clip2_0_709">
<rect width="39" height="193" fill="white" transform="translate(237 41)"/>
</clipPath>
<clipPath id="clip3_0_709">
<rect width="44" height="206" fill="white" transform="translate(321 28)"/>
</clipPath>
<clipPath id="clip4_0_709">
<rect width="40" height="178" fill="white" transform="translate(407 56)"/>
</clipPath>
</defs>
</svg>
