<svg width="555" height="234" viewBox="0 0 555 234" fill="none" xmlns="http://www.w3.org/2000/svg">
<g clip-path="url(#clip0_0_473)">
<path d="M3.53267 162.091V151.182H4.23153V162.091H3.53267ZM5.71875 154.565C5.6733 154.162 5.4858 153.849 5.15625 153.628C4.8267 153.403 4.41193 153.291 3.91193 153.291C3.55398 153.291 3.24432 153.348 2.98295 153.462C2.72159 153.572 2.51847 153.726 2.37358 153.922C2.23153 154.115 2.16051 154.335 2.16051 154.582C2.16051 154.79 2.20881 154.969 2.3054 155.119C2.40483 155.27 2.53409 155.396 2.69318 155.499C2.85511 155.598 3.02841 155.682 3.21307 155.75C3.39773 155.815 3.57528 155.869 3.74574 155.912L4.59801 156.134C4.87642 156.202 5.16193 156.294 5.45455 156.411C5.74716 156.527 6.01847 156.68 6.26847 156.871C6.51847 157.061 6.72017 157.297 6.87358 157.578C7.02983 157.859 7.10795 158.196 7.10795 158.588C7.10795 159.082 6.98011 159.521 6.72443 159.905C6.47159 160.288 6.10369 160.591 5.62074 160.812C5.14063 161.034 4.55966 161.145 3.87784 161.145C3.22443 161.145 2.65909 161.041 2.18182 160.834C1.70455 160.626 1.33097 160.332 1.06108 159.952C0.791193 159.568 0.642045 159.114 0.613636 158.588H1.93466C1.96023 158.903 2.0625 159.166 2.24148 159.376C2.4233 159.584 2.65483 159.739 2.93608 159.841C3.22017 159.94 3.53125 159.99 3.86932 159.99C4.24148 159.99 4.57244 159.932 4.86222 159.815C5.15483 159.696 5.38494 159.531 5.55256 159.321C5.72017 159.108 5.80398 158.859 5.80398 158.575C5.80398 158.317 5.73011 158.105 5.58239 157.94C5.4375 157.776 5.24006 157.639 4.99006 157.531C4.7429 157.423 4.46307 157.328 4.15057 157.246L3.11932 156.964C2.42045 156.774 1.86648 156.494 1.45739 156.125C1.05114 155.756 0.848011 155.267 0.848011 154.659C0.848011 154.156 0.984375 153.717 1.2571 153.342C1.52983 152.967 1.89915 152.676 2.36506 152.469C2.83097 152.259 3.35653 152.153 3.94176 152.153C4.53267 152.153 5.05398 152.257 5.50568 152.464C5.96023 152.672 6.31818 152.957 6.57955 153.321C6.84091 153.682 6.97727 154.097 6.98864 154.565H5.71875ZM11.8732 152.273V161H10.5522V153.594H10.5011L8.413 154.957V153.696L10.5906 152.273H11.8732ZM14.3533 161V152.273H15.6701V156.44H15.7766L19.4371 152.273H21.0948L17.5749 156.202L21.1076 161H19.5224L16.7013 157.101L15.6701 158.286V161H14.3533Z" fill="#94A3B8"/>
<path d="M8.53267 210.091V199.182H9.23153V210.091H8.53267ZM10.7188 202.565C10.6733 202.162 10.4858 201.849 10.1562 201.628C9.8267 201.403 9.41193 201.291 8.91193 201.291C8.55398 201.291 8.24432 201.348 7.98295 201.462C7.72159 201.572 7.51847 201.726 7.37358 201.922C7.23153 202.115 7.16051 202.335 7.16051 202.582C7.16051 202.79 7.20881 202.969 7.3054 203.119C7.40483 203.27 7.53409 203.396 7.69318 203.499C7.85511 203.598 8.02841 203.682 8.21307 203.75C8.39773 203.815 8.57528 203.869 8.74574 203.912L9.59801 204.134C9.87642 204.202 10.1619 204.294 10.4545 204.411C10.7472 204.527 11.0185 204.68 11.2685 204.871C11.5185 205.061 11.7202 205.297 11.8736 205.578C12.0298 205.859 12.108 206.196 12.108 206.588C12.108 207.082 11.9801 207.521 11.7244 207.905C11.4716 208.288 11.1037 208.591 10.6207 208.812C10.1406 209.034 9.55966 209.145 8.87784 209.145C8.22443 209.145 7.65909 209.041 7.18182 208.834C6.70455 208.626 6.33097 208.332 6.06108 207.952C5.79119 207.568 5.64205 207.114 5.61364 206.588H6.93466C6.96023 206.903 7.0625 207.166 7.24148 207.376C7.4233 207.584 7.65483 207.739 7.93608 207.841C8.22017 207.94 8.53125 207.99 8.86932 207.99C9.24148 207.99 9.57244 207.932 9.86222 207.815C10.1548 207.696 10.3849 207.531 10.5526 207.321C10.7202 207.108 10.804 206.859 10.804 206.575C10.804 206.317 10.7301 206.105 10.5824 205.94C10.4375 205.776 10.2401 205.639 9.99006 205.531C9.7429 205.423 9.46307 205.328 9.15057 205.246L8.11932 204.964C7.42045 204.774 6.86648 204.494 6.45739 204.125C6.05114 203.756 5.84801 203.267 5.84801 202.659C5.84801 202.156 5.98438 201.717 6.2571 201.342C6.52983 200.967 6.89915 200.676 7.36506 200.469C7.83097 200.259 8.35653 200.153 8.94176 200.153C9.53267 200.153 10.054 200.257 10.5057 200.464C10.9602 200.672 11.3182 200.957 11.5795 201.321C11.8409 201.682 11.9773 202.097 11.9886 202.565H10.7188ZM16.6005 209.145C15.9272 209.142 15.3519 208.964 14.8746 208.612C14.3974 208.26 14.0323 207.747 13.7795 207.074C13.5266 206.401 13.4002 205.589 13.4002 204.641C13.4002 203.695 13.5266 202.886 13.7795 202.216C14.0352 201.545 14.4016 201.034 14.8789 200.682C15.359 200.33 15.9329 200.153 16.6005 200.153C17.2681 200.153 17.8406 200.331 18.3178 200.686C18.7951 201.038 19.1602 201.55 19.413 202.22C19.6687 202.888 19.7965 203.695 19.7965 204.641C19.7965 205.592 19.6701 206.405 19.4173 207.078C19.1644 207.749 18.7994 208.261 18.3221 208.616C17.8448 208.969 17.271 209.145 16.6005 209.145ZM16.6005 208.007C17.1914 208.007 17.6531 207.719 17.9854 207.142C18.3207 206.565 18.4883 205.732 18.4883 204.641C18.4883 203.916 18.4116 203.304 18.2582 202.804C18.1076 202.301 17.8903 201.92 17.6062 201.662C17.3249 201.401 16.9897 201.27 16.6005 201.27C16.0124 201.27 15.5508 201.56 15.2156 202.139C14.8803 202.719 14.7113 203.553 14.7085 204.641C14.7085 205.368 14.7837 205.983 14.9343 206.486C15.0877 206.986 15.305 207.365 15.5863 207.624C15.8675 207.879 16.2056 208.007 16.6005 208.007Z" fill="#94A3B8"/>
<path d="M3.53267 112.091V101.182H4.23153V112.091H3.53267ZM5.71875 104.565C5.6733 104.162 5.4858 103.849 5.15625 103.628C4.8267 103.403 4.41193 103.291 3.91193 103.291C3.55398 103.291 3.24432 103.348 2.98295 103.462C2.72159 103.572 2.51847 103.726 2.37358 103.922C2.23153 104.115 2.16051 104.335 2.16051 104.582C2.16051 104.79 2.20881 104.969 2.3054 105.119C2.40483 105.27 2.53409 105.396 2.69318 105.499C2.85511 105.598 3.02841 105.682 3.21307 105.75C3.39773 105.815 3.57528 105.869 3.74574 105.912L4.59801 106.134C4.87642 106.202 5.16193 106.294 5.45455 106.411C5.74716 106.527 6.01847 106.68 6.26847 106.871C6.51847 107.061 6.72017 107.297 6.87358 107.578C7.02983 107.859 7.10795 108.196 7.10795 108.588C7.10795 109.082 6.98011 109.521 6.72443 109.905C6.47159 110.288 6.10369 110.591 5.62074 110.812C5.14063 111.034 4.55966 111.145 3.87784 111.145C3.22443 111.145 2.65909 111.041 2.18182 110.834C1.70455 110.626 1.33097 110.332 1.06108 109.952C0.791193 109.568 0.642045 109.114 0.613636 108.588H1.93466C1.96023 108.903 2.0625 109.166 2.24148 109.376C2.4233 109.584 2.65483 109.739 2.93608 109.841C3.22017 109.94 3.53125 109.99 3.86932 109.99C4.24148 109.99 4.57244 109.932 4.86222 109.815C5.15483 109.696 5.38494 109.531 5.55256 109.321C5.72017 109.108 5.80398 108.859 5.80398 108.575C5.80398 108.317 5.73011 108.105 5.58239 107.94C5.4375 107.776 5.24006 107.639 4.99006 107.531C4.7429 107.423 4.46307 107.328 4.15057 107.246L3.11932 106.964C2.42045 106.774 1.86648 106.494 1.45739 106.125C1.05114 105.756 0.848011 105.267 0.848011 104.659C0.848011 104.156 0.984375 103.717 1.2571 103.342C1.52983 102.967 1.89915 102.676 2.36506 102.469C2.83097 102.259 3.35653 102.153 3.94176 102.153C4.53267 102.153 5.05398 102.257 5.50568 102.464C5.96023 102.672 6.31818 102.957 6.57955 103.321C6.84091 103.682 6.97727 104.097 6.98864 104.565H5.71875ZM8.56214 111V110.045L11.5153 106.986C11.8306 106.653 12.0906 106.362 12.2951 106.112C12.5025 105.859 12.6573 105.619 12.7596 105.392C12.8619 105.165 12.913 104.923 12.913 104.668C12.913 104.378 12.8448 104.128 12.7085 103.918C12.5721 103.705 12.386 103.541 12.1502 103.428C11.9144 103.311 11.6488 103.253 11.3533 103.253C11.0408 103.253 10.7681 103.317 10.5352 103.445C10.3022 103.572 10.1232 103.753 9.99822 103.986C9.87322 104.219 9.81072 104.491 9.81072 104.804H8.55362C8.55362 104.273 8.67578 103.808 8.9201 103.411C9.16442 103.013 9.49964 102.705 9.92578 102.486C10.3519 102.264 10.8363 102.153 11.3789 102.153C11.9272 102.153 12.4102 102.263 12.8278 102.482C13.2482 102.697 13.5763 102.993 13.8121 103.368C14.0479 103.74 14.1658 104.161 14.1658 104.629C14.1658 104.953 14.1048 105.27 13.9826 105.58C13.8633 105.889 13.6545 106.234 13.3562 106.615C13.0579 106.993 12.6431 107.452 12.1119 107.991L10.3775 109.807V109.871H14.3065V111H8.56214ZM16.0408 111V102.273H17.3576V106.44H17.4641L21.1246 102.273H22.7823L19.2624 106.202L22.7951 111H21.2099L18.3888 107.101L17.3576 108.286V111H16.0408Z" fill="#94A3B8"/>
<path d="M3.53267 64.0909V53.1818H4.23153V64.0909H3.53267ZM5.71875 56.5653C5.6733 56.1619 5.4858 55.8494 5.15625 55.6278C4.8267 55.4034 4.41193 55.2912 3.91193 55.2912C3.55398 55.2912 3.24432 55.348 2.98295 55.4616C2.72159 55.5724 2.51847 55.7259 2.37358 55.9219C2.23153 56.1151 2.16051 56.3352 2.16051 56.5824C2.16051 56.7898 2.20881 56.9687 2.3054 57.1193C2.40483 57.2699 2.53409 57.3963 2.69318 57.4986C2.85511 57.598 3.02841 57.6818 3.21307 57.75C3.39773 57.8153 3.57528 57.8693 3.74574 57.9119L4.59801 58.1335C4.87642 58.2017 5.16193 58.294 5.45455 58.4105C5.74716 58.527 6.01847 58.6804 6.26847 58.8707C6.51847 59.0611 6.72017 59.2969 6.87358 59.5781C7.02983 59.8594 7.10795 60.196 7.10795 60.5881C7.10795 61.0824 6.98011 61.5213 6.72443 61.9048C6.47159 62.2884 6.10369 62.5909 5.62074 62.8125C5.14063 63.0341 4.55966 63.1449 3.87784 63.1449C3.22443 63.1449 2.65909 63.0412 2.18182 62.8338C1.70455 62.6264 1.33097 62.3324 1.06108 61.9517C0.791193 61.5682 0.642045 61.1136 0.613636 60.5881H1.93466C1.96023 60.9034 2.0625 61.1662 2.24148 61.3764C2.4233 61.5838 2.65483 61.7386 2.93608 61.8409C3.22017 61.9403 3.53125 61.9901 3.86932 61.9901C4.24148 61.9901 4.57244 61.9318 4.86222 61.8153C5.15483 61.696 5.38494 61.5312 5.55256 61.321C5.72017 61.108 5.80398 60.8594 5.80398 60.5753C5.80398 60.3168 5.73011 60.1051 5.58239 59.9403C5.4375 59.7756 5.24006 59.6392 4.99006 59.5312C4.7429 59.4233 4.46307 59.3281 4.15057 59.2457L3.11932 58.9645C2.42045 58.7741 1.86648 58.4943 1.45739 58.125C1.05114 57.7557 0.848011 57.267 0.848011 56.6591C0.848011 56.1562 0.984375 55.7173 1.2571 55.3423C1.52983 54.9673 1.89915 54.6761 2.36506 54.4688C2.83097 54.2585 3.35653 54.1534 3.94176 54.1534C4.53267 54.1534 5.05398 54.2571 5.50568 54.4645C5.96023 54.6719 6.31818 54.9574 6.57955 55.321C6.84091 55.6818 6.97727 56.0966 6.98864 56.5653H5.71875ZM11.4428 63.1193C10.9087 63.1193 10.4286 63.017 10.0025 62.8125C9.57919 62.6051 9.24112 62.321 8.98828 61.9602C8.73544 61.5994 8.6005 61.1875 8.58345 60.7244H9.86186C9.89311 61.0994 10.0593 61.4077 10.3604 61.6491C10.6616 61.8906 11.0224 62.0114 11.4428 62.0114C11.7781 62.0114 12.0749 61.9347 12.3335 61.7812C12.5948 61.625 12.7994 61.4105 12.9471 61.1378C13.0977 60.8651 13.1729 60.554 13.1729 60.2045C13.1729 59.8494 13.0962 59.5327 12.9428 59.2543C12.7894 58.9759 12.5778 58.7571 12.3079 58.598C12.0408 58.4389 11.734 58.358 11.3874 58.3551C11.1232 58.3551 10.8576 58.4006 10.5906 58.4915C10.3235 58.5824 10.1076 58.7017 9.94283 58.8494L8.73686 58.6705L9.22692 54.2727H14.0252V55.402H10.3221L10.0451 57.8438H10.0962C10.2667 57.679 10.4925 57.5412 10.7738 57.4304C11.0579 57.3196 11.3619 57.2642 11.6857 57.2642C12.217 57.2642 12.69 57.3906 13.1048 57.6435C13.5224 57.8963 13.8505 58.2415 14.0891 58.679C14.3306 59.1136 14.4499 59.6136 14.4471 60.179C14.4499 60.7443 14.3221 61.2486 14.0636 61.6918C13.8079 62.1349 13.4528 62.4844 12.9982 62.7401C12.5465 62.9929 12.0281 63.1193 11.4428 63.1193ZM16.1229 63V54.2727H17.4396V58.4403H17.5462L21.2067 54.2727H22.8643L19.3445 58.2017L22.8771 63H21.2919L18.4709 59.1009L17.4396 60.2855V63H16.1229Z" fill="#94A3B8"/>
<path d="M3.53267 15.0909V4.18182H4.23153V15.0909H3.53267ZM5.71875 7.56534C5.6733 7.16193 5.4858 6.84943 5.15625 6.62784C4.8267 6.40341 4.41193 6.29119 3.91193 6.29119C3.55398 6.29119 3.24432 6.34801 2.98295 6.46165C2.72159 6.57244 2.51847 6.72585 2.37358 6.92188C2.23153 7.11506 2.16051 7.33523 2.16051 7.58239C2.16051 7.78977 2.20881 7.96875 2.3054 8.11932C2.40483 8.26989 2.53409 8.39631 2.69318 8.49858C2.85511 8.59801 3.02841 8.68182 3.21307 8.75C3.39773 8.81534 3.57528 8.86932 3.74574 8.91193L4.59801 9.13352C4.87642 9.2017 5.16193 9.29403 5.45455 9.41051C5.74716 9.52699 6.01847 9.6804 6.26847 9.87074C6.51847 10.0611 6.72017 10.2969 6.87358 10.5781C7.02983 10.8594 7.10795 11.196 7.10795 11.5881C7.10795 12.0824 6.98011 12.5213 6.72443 12.9048C6.47159 13.2884 6.10369 13.5909 5.62074 13.8125C5.14063 14.0341 4.55966 14.1449 3.87784 14.1449C3.22443 14.1449 2.65909 14.0412 2.18182 13.8338C1.70455 13.6264 1.33097 13.3324 1.06108 12.9517C0.791193 12.5682 0.642045 12.1136 0.613636 11.5881H1.93466C1.96023 11.9034 2.0625 12.1662 2.24148 12.3764C2.4233 12.5838 2.65483 12.7386 2.93608 12.8409C3.22017 12.9403 3.53125 12.9901 3.86932 12.9901C4.24148 12.9901 4.57244 12.9318 4.86222 12.8153C5.15483 12.696 5.38494 12.5312 5.55256 12.321C5.72017 12.108 5.80398 11.8594 5.80398 11.5753C5.80398 11.3168 5.73011 11.1051 5.58239 10.9403C5.4375 10.7756 5.24006 10.6392 4.99006 10.5312C4.7429 10.4233 4.46307 10.3281 4.15057 10.2457L3.11932 9.96449C2.42045 9.77415 1.86648 9.49432 1.45739 9.125C1.05114 8.75568 0.848011 8.26705 0.848011 7.65909C0.848011 7.15625 0.984375 6.71733 1.2571 6.34233C1.52983 5.96733 1.89915 5.67614 2.36506 5.46875C2.83097 5.25852 3.35653 5.15341 3.94176 5.15341C4.53267 5.15341 5.05398 5.2571 5.50568 5.46449C5.96023 5.67188 6.31818 5.95739 6.57955 6.32102C6.84091 6.68182 6.97727 7.09659 6.98864 7.56534H5.71875ZM11.511 14.1193C10.9002 14.1193 10.3604 14.0142 9.89169 13.804C9.42578 13.5937 9.06072 13.304 8.79652 12.9347C8.53232 12.5653 8.40163 12.1449 8.40447 11.6733C8.40163 11.304 8.47692 10.9645 8.63033 10.6548C8.78658 10.3423 8.99822 10.0824 9.26527 9.875C9.53232 9.66477 9.83061 9.53125 10.1602 9.47443V9.4233C9.7255 9.31818 9.37749 9.08523 9.11612 8.72443C8.85476 8.36364 8.7255 7.94886 8.72834 7.48011C8.7255 7.03409 8.84339 6.63636 9.08203 6.28693C9.32351 5.93466 9.65447 5.65767 10.0749 5.45597C10.4954 5.25426 10.9741 5.15341 11.511 5.15341C12.0423 5.15341 12.5167 5.25568 12.9343 5.46023C13.3548 5.66193 13.6857 5.93892 13.9272 6.29119C14.1687 6.64062 14.2908 7.03693 14.2937 7.48011C14.2908 7.94886 14.1573 8.36364 13.8931 8.72443C13.6289 9.08523 13.2852 9.31818 12.8619 9.4233V9.47443C13.1886 9.53125 13.4826 9.66477 13.744 9.875C14.0082 10.0824 14.2184 10.3423 14.3746 10.6548C14.5337 10.9645 14.6147 11.304 14.6175 11.6733C14.6147 12.1449 14.4812 12.5653 14.217 12.9347C13.9528 13.304 13.5863 13.5937 13.1175 13.804C12.6516 14.0142 12.1161 14.1193 11.511 14.1193ZM11.511 13.0412C11.8718 13.0412 12.1843 12.9815 12.4485 12.8622C12.7127 12.7401 12.9173 12.571 13.0621 12.3551C13.207 12.1364 13.2809 11.8807 13.2837 11.5881C13.2809 11.2841 13.2013 11.0156 13.0451 10.7827C12.8917 10.5497 12.6829 10.3665 12.4187 10.233C12.1545 10.0994 11.8519 10.0327 11.511 10.0327C11.1673 10.0327 10.8619 10.0994 10.5948 10.233C10.3278 10.3665 10.1175 10.5497 9.96413 10.7827C9.81072 11.0156 9.73544 11.2841 9.73828 11.5881C9.73544 11.8807 9.80504 12.1364 9.94709 12.3551C10.092 12.571 10.2979 12.7401 10.565 12.8622C10.832 12.9815 11.1474 13.0412 11.511 13.0412ZM11.511 8.98011C11.8008 8.98011 12.0579 8.92187 12.2823 8.8054C12.5067 8.68892 12.6829 8.52699 12.8107 8.3196C12.9414 8.11222 13.0082 7.86932 13.011 7.59091C13.0082 7.31818 12.9428 7.07955 12.815 6.875C12.69 6.67045 12.5153 6.51278 12.2908 6.40199C12.0664 6.28835 11.8065 6.23153 11.511 6.23153C11.2099 6.23153 10.9457 6.28835 10.7184 6.40199C10.494 6.51278 10.3192 6.67045 10.1942 6.875C10.0692 7.07955 10.0082 7.31818 10.011 7.59091C10.0082 7.86932 10.0707 8.11222 10.1985 8.3196C10.3263 8.52699 10.5025 8.68892 10.7269 8.8054C10.9542 8.92187 11.2156 8.98011 11.511 8.98011ZM16.2635 14V5.27273H17.5803V9.44034H17.6868L21.3473 5.27273H23.005L19.4851 9.2017L23.0178 14H21.4325L18.6115 10.1009L17.5803 11.2855V14H16.2635Z" fill="#94A3B8"/>
</g>
<rect x="35" y="205" width="520" height="1" fill="#F1F5F9"/>
<rect x="35" y="156" width="520" height="1" fill="#F1F5F9"/>
<rect x="35" y="107" width="520" height="1" fill="#F1F5F9"/>
<rect x="35" y="58" width="520" height="1" fill="#F1F5F9"/>
<rect x="35" y="9" width="520" height="1" fill="#F1F5F9"/>
<path d="M62.7841 228H59.9588V219.273H62.8736C63.7287 219.273 64.4631 219.447 65.0767 219.797C65.6903 220.143 66.1605 220.642 66.4872 221.293C66.8168 221.94 66.9815 222.717 66.9815 223.624C66.9815 224.533 66.8153 225.314 66.483 225.967C66.1534 226.621 65.6761 227.124 65.0511 227.476C64.4261 227.825 63.6705 228 62.7841 228ZM61.2756 226.849H62.7116C63.3764 226.849 63.929 226.724 64.3693 226.474C64.8097 226.222 65.1392 225.857 65.358 225.379C65.5767 224.899 65.6861 224.314 65.6861 223.624C65.6861 222.939 65.5767 222.358 65.358 221.881C65.142 221.403 64.8196 221.041 64.3906 220.794C63.9616 220.547 63.429 220.423 62.7926 220.423H61.2756V226.849ZM68.619 228V219.273H74.0906V220.406H69.9357V223.065H73.805V224.195H69.9357V226.866H74.1417V228H68.619ZM83.098 222.111H81.7685C81.7173 221.827 81.6222 221.577 81.483 221.361C81.3438 221.145 81.1733 220.962 80.9716 220.811C80.7699 220.661 80.544 220.547 80.294 220.47C80.0469 220.393 79.7841 220.355 79.5057 220.355C79.0028 220.355 78.5526 220.482 78.1548 220.734C77.7599 220.987 77.4474 221.358 77.2173 221.847C76.9901 222.335 76.8764 222.932 76.8764 223.636C76.8764 224.347 76.9901 224.946 77.2173 225.435C77.4474 225.923 77.7614 226.293 78.1591 226.543C78.5568 226.793 79.0043 226.918 79.5014 226.918C79.777 226.918 80.0384 226.881 80.2855 226.807C80.5355 226.73 80.7614 226.618 80.9631 226.47C81.1648 226.322 81.3352 226.142 81.4744 225.929C81.6165 225.713 81.7145 225.466 81.7685 225.188L83.098 225.192C83.027 225.621 82.8892 226.016 82.6847 226.376C82.483 226.734 82.223 227.044 81.9048 227.305C81.5895 227.564 81.2287 227.764 80.8224 227.906C80.4162 228.048 79.973 228.119 79.4929 228.119C78.7372 228.119 78.0639 227.94 77.473 227.582C76.8821 227.222 76.4162 226.706 76.0753 226.036C75.7372 225.365 75.5682 224.565 75.5682 223.636C75.5682 222.705 75.7386 221.905 76.0795 221.237C76.4205 220.567 76.8864 220.053 77.4773 219.695C78.0682 219.334 78.7401 219.153 79.4929 219.153C79.956 219.153 80.3878 219.22 80.7884 219.354C81.1918 219.484 81.554 219.678 81.875 219.933C82.196 220.186 82.4616 220.496 82.6719 220.862C82.8821 221.226 83.0241 221.642 83.098 222.111ZM87.7301 228V227.045L90.6832 223.986C90.9986 223.653 91.2585 223.362 91.4631 223.112C91.6705 222.859 91.8253 222.619 91.9276 222.392C92.0298 222.165 92.081 221.923 92.081 221.668C92.081 221.378 92.0128 221.128 91.8764 220.918C91.7401 220.705 91.554 220.541 91.3182 220.428C91.0824 220.311 90.8168 220.253 90.5213 220.253C90.2088 220.253 89.9361 220.317 89.7031 220.445C89.4702 220.572 89.2912 220.753 89.1662 220.986C89.0412 221.219 88.9787 221.491 88.9787 221.804H87.7216C87.7216 221.273 87.8438 220.808 88.0881 220.411C88.3324 220.013 88.6676 219.705 89.0938 219.486C89.5199 219.264 90.0043 219.153 90.5469 219.153C91.0952 219.153 91.5781 219.263 91.9957 219.482C92.4162 219.697 92.7443 219.993 92.9801 220.368C93.2159 220.74 93.3338 221.161 93.3338 221.629C93.3338 221.953 93.2727 222.27 93.1506 222.58C93.0313 222.889 92.8224 223.234 92.5241 223.615C92.2259 223.993 91.8111 224.452 91.2798 224.991L89.5455 226.807V226.871H93.4744V228H87.7301ZM98.1278 228.145C97.4545 228.142 96.8793 227.964 96.402 227.612C95.9247 227.26 95.5597 226.747 95.3068 226.074C95.054 225.401 94.9276 224.589 94.9276 223.641C94.9276 222.695 95.054 221.886 95.3068 221.216C95.5625 220.545 95.929 220.034 96.4062 219.682C96.8864 219.33 97.4602 219.153 98.1278 219.153C98.7955 219.153 99.3679 219.331 99.8452 219.686C100.322 220.038 100.688 220.55 100.94 221.22C101.196 221.888 101.324 222.695 101.324 223.641C101.324 224.592 101.197 225.405 100.945 226.078C100.692 226.749 100.327 227.261 99.8494 227.616C99.3722 227.969 98.7983 228.145 98.1278 228.145ZM98.1278 227.007C98.7188 227.007 99.1804 226.719 99.5128 226.142C99.848 225.565 100.016 224.732 100.016 223.641C100.016 222.916 99.9389 222.304 99.7855 221.804C99.6349 221.301 99.4176 220.92 99.1335 220.662C98.8523 220.401 98.517 220.27 98.1278 220.27C97.5398 220.27 97.0781 220.56 96.7429 221.139C96.4077 221.719 96.2386 222.553 96.2358 223.641C96.2358 224.368 96.3111 224.983 96.4616 225.486C96.6151 225.986 96.8324 226.365 97.1136 226.624C97.3949 226.879 97.733 227.007 98.1278 227.007Z" fill="#94A3B8"/>
<rect x="85" y="65" width="16" height="141" fill="#6366F1"/>
<rect x="61" y="172" width="16" height="34" fill="#38BDF8"/>
<g clip-path="url(#clip1_0_473)">
<path d="M155.351 219.273H156.663V225.46C156.663 226.02 156.553 226.499 156.331 226.896C156.112 227.294 155.804 227.598 155.406 227.808C155.009 228.016 154.543 228.119 154.009 228.119C153.517 228.119 153.075 228.03 152.683 227.851C152.294 227.672 151.986 227.412 151.759 227.071C151.534 226.727 151.422 226.31 151.422 225.818H152.73C152.73 226.06 152.786 226.268 152.896 226.445C153.01 226.621 153.165 226.759 153.361 226.858C153.56 226.955 153.787 227.003 154.043 227.003C154.321 227.003 154.557 226.945 154.75 226.828C154.946 226.709 155.095 226.534 155.197 226.304C155.3 226.074 155.351 225.793 155.351 225.46V219.273ZM159.317 228H157.919L161.06 219.273H162.581L165.722 228H164.324L161.857 220.858H161.789L159.317 228ZM159.551 224.582H164.086V225.69H159.551V224.582ZM174.026 219.273V228H172.816L168.38 221.599H168.299V228H166.982V219.273H168.201L172.641 225.682H172.722V219.273H174.026ZM179.004 228V227.045L181.957 223.986C182.272 223.653 182.532 223.362 182.737 223.112C182.944 222.859 183.099 222.619 183.201 222.392C183.303 222.165 183.354 221.923 183.354 221.668C183.354 221.378 183.286 221.128 183.15 220.918C183.013 220.705 182.827 220.541 182.592 220.428C182.356 220.311 182.09 220.253 181.795 220.253C181.482 220.253 181.21 220.317 180.977 220.445C180.744 220.572 180.565 220.753 180.44 220.986C180.315 221.219 180.252 221.491 180.252 221.804H178.995C178.995 221.273 179.117 220.808 179.362 220.411C179.606 220.013 179.941 219.705 180.367 219.486C180.793 219.264 181.278 219.153 181.82 219.153C182.369 219.153 182.852 219.263 183.269 219.482C183.69 219.697 184.018 219.993 184.254 220.368C184.489 220.74 184.607 221.161 184.607 221.629C184.607 221.953 184.546 222.27 184.424 222.58C184.305 222.889 184.096 223.234 183.798 223.615C183.499 223.993 183.085 224.452 182.553 224.991L180.819 226.807V226.871H184.748V228H179.004ZM189.674 219.273V228H188.353V220.594H188.302L186.214 221.957V220.696L188.391 219.273H189.674Z" fill="#94A3B8"/>
<rect x="152" y="81" width="16" height="125" fill="#6366F1"/>
<rect x="176" y="127" width="16" height="79" fill="#38BDF8"/>
</g>
<g clip-path="url(#clip2_0_473)">
<path d="M235.959 228V219.273H241.371V220.406H237.276V223.065H240.983V224.195H237.276V228H235.959ZM242.99 228V219.273H248.462V220.406H244.307V223.065H248.176V224.195H244.307V226.866H248.513V228H242.99ZM250.221 228V219.273H253.417C254.036 219.273 254.549 219.375 254.955 219.58C255.361 219.781 255.665 220.055 255.867 220.402C256.069 220.746 256.169 221.134 256.169 221.565C256.169 221.929 256.103 222.236 255.969 222.486C255.836 222.733 255.657 222.932 255.432 223.082C255.211 223.23 254.966 223.338 254.699 223.406V223.491C254.989 223.506 255.272 223.599 255.547 223.773C255.826 223.943 256.056 224.186 256.238 224.501C256.419 224.817 256.51 225.2 256.51 225.652C256.51 226.098 256.405 226.499 256.195 226.854C255.988 227.206 255.667 227.486 255.232 227.693C254.797 227.898 254.242 228 253.566 228H250.221ZM251.537 226.871H253.438C254.069 226.871 254.52 226.749 254.793 226.504C255.066 226.26 255.202 225.955 255.202 225.588C255.202 225.312 255.132 225.06 254.993 224.83C254.854 224.599 254.655 224.416 254.397 224.28C254.141 224.143 253.837 224.075 253.485 224.075H251.537V226.871ZM251.537 223.048H253.301C253.597 223.048 253.863 222.991 254.098 222.878C254.337 222.764 254.526 222.605 254.665 222.401C254.807 222.193 254.878 221.949 254.878 221.668C254.878 221.307 254.752 221.004 254.499 220.76C254.246 220.516 253.858 220.393 253.336 220.393H251.537V223.048ZM261.129 228V227.045L264.082 223.986C264.397 223.653 264.657 223.362 264.862 223.112C265.069 222.859 265.224 222.619 265.326 222.392C265.428 222.165 265.479 221.923 265.479 221.668C265.479 221.378 265.411 221.128 265.275 220.918C265.138 220.705 264.952 220.541 264.717 220.428C264.481 220.311 264.215 220.253 263.92 220.253C263.607 220.253 263.335 220.317 263.102 220.445C262.869 220.572 262.69 220.753 262.565 220.986C262.44 221.219 262.377 221.491 262.377 221.804H261.12C261.12 221.273 261.242 220.808 261.487 220.411C261.731 220.013 262.066 219.705 262.492 219.486C262.918 219.264 263.403 219.153 263.945 219.153C264.494 219.153 264.977 219.263 265.394 219.482C265.815 219.697 266.143 219.993 266.379 220.368C266.614 220.74 266.732 221.161 266.732 221.629C266.732 221.953 266.671 222.27 266.549 222.58C266.43 222.889 266.221 223.234 265.923 223.615C265.624 223.993 265.21 224.452 264.678 224.991L262.944 226.807V226.871H266.873V228H261.129ZM271.799 219.273V228H270.478V220.594H270.427L268.339 221.957V220.696L270.516 219.273H271.799Z" fill="#94A3B8"/>
<rect x="258" y="37" width="16" height="169" fill="#6366F1"/>
<rect x="234" y="166" width="16" height="40" fill="#38BDF8"/>
</g>
<g clip-path="url(#clip3_0_473)">
<path d="M319.959 219.273H321.557L324.335 226.057H324.438L327.216 219.273H328.814V228H327.561V221.685H327.48L324.906 227.987H323.866L321.293 221.68H321.212V228H319.959V219.273ZM331.466 228H330.068L333.208 219.273H334.73L337.87 228H336.473L334.005 220.858H333.937L331.466 228ZM331.7 224.582H336.234V225.69H331.7V224.582ZM339.131 228V219.273H342.241C342.918 219.273 343.479 219.389 343.925 219.622C344.374 219.855 344.709 220.178 344.93 220.589C345.152 220.999 345.263 221.472 345.263 222.009C345.263 222.543 345.151 223.013 344.926 223.419C344.705 223.822 344.369 224.136 343.92 224.361C343.474 224.585 342.913 224.697 342.237 224.697H339.881V223.564H342.118C342.544 223.564 342.891 223.503 343.158 223.381C343.428 223.259 343.625 223.081 343.75 222.848C343.875 222.615 343.938 222.335 343.938 222.009C343.938 221.679 343.874 221.393 343.746 221.152C343.621 220.911 343.423 220.726 343.153 220.598C342.886 220.467 342.536 220.402 342.101 220.402H340.447V228H339.131ZM343.439 224.062L345.595 228H344.095L341.982 224.062H343.439ZM349.922 228V227.045L352.875 223.986C353.19 223.653 353.45 223.362 353.654 223.112C353.862 222.859 354.017 222.619 354.119 222.392C354.221 222.165 354.272 221.923 354.272 221.668C354.272 221.378 354.204 221.128 354.068 220.918C353.931 220.705 353.745 220.541 353.51 220.428C353.274 220.311 353.008 220.253 352.713 220.253C352.4 220.253 352.127 220.317 351.895 220.445C351.662 220.572 351.483 220.753 351.358 220.986C351.233 221.219 351.17 221.491 351.17 221.804H349.913C349.913 221.273 350.035 220.808 350.279 220.411C350.524 220.013 350.859 219.705 351.285 219.486C351.711 219.264 352.196 219.153 352.738 219.153C353.287 219.153 353.77 219.263 354.187 219.482C354.608 219.697 354.936 219.993 355.172 220.368C355.407 220.74 355.525 221.161 355.525 221.629C355.525 221.953 355.464 222.27 355.342 222.58C355.223 222.889 355.014 223.234 354.716 223.615C354.417 223.993 354.002 224.452 353.471 224.991L351.737 226.807V226.871H355.666V228H349.922ZM360.592 219.273V228H359.271V220.594H359.22L357.132 221.957V220.696L359.309 219.273H360.592Z" fill="#94A3B8"/>
<rect x="321" y="137" width="16" height="69" fill="#6366F1"/>
<rect x="345" y="71" width="16" height="135" fill="#38BDF8"/>
</g>
<g clip-path="url(#clip4_0_473)">
<path d="M406.696 228H405.298L408.439 219.273H409.96L413.101 228H411.703L409.236 220.858H409.168L406.696 228ZM406.93 224.582H411.464V225.69H406.93V224.582ZM414.361 228V219.273H417.472C418.151 219.273 418.713 219.396 419.159 219.643C419.605 219.891 419.939 220.229 420.161 220.658C420.382 221.084 420.493 221.564 420.493 222.098C420.493 222.635 420.381 223.118 420.157 223.547C419.935 223.973 419.6 224.311 419.151 224.561C418.705 224.808 418.144 224.932 417.468 224.932H415.328V223.815H417.348C417.777 223.815 418.125 223.741 418.392 223.594C418.659 223.443 418.855 223.239 418.98 222.98C419.105 222.722 419.168 222.428 419.168 222.098C419.168 221.768 419.105 221.476 418.98 221.22C418.855 220.964 418.658 220.764 418.388 220.619C418.121 220.474 417.769 220.402 417.331 220.402H415.678V228H414.361ZM422.037 228V219.273H425.148C425.824 219.273 426.385 219.389 426.831 219.622C427.28 219.855 427.615 220.178 427.837 220.589C428.058 220.999 428.169 221.472 428.169 222.009C428.169 222.543 428.057 223.013 427.832 223.419C427.611 223.822 427.276 224.136 426.827 224.361C426.381 224.585 425.82 224.697 425.143 224.697H422.787V223.564H425.024C425.45 223.564 425.797 223.503 426.064 223.381C426.334 223.259 426.531 223.081 426.656 222.848C426.781 222.615 426.844 222.335 426.844 222.009C426.844 221.679 426.78 221.393 426.652 221.152C426.527 220.911 426.33 220.726 426.06 220.598C425.793 220.467 425.442 220.402 425.007 220.402H423.354V228H422.037ZM426.345 224.062L428.501 228H427.001L424.888 224.062H426.345ZM432.828 228V227.045L435.781 223.986C436.096 223.653 436.356 223.362 436.561 223.112C436.768 222.859 436.923 222.619 437.025 222.392C437.127 222.165 437.179 221.923 437.179 221.668C437.179 221.378 437.11 221.128 436.974 220.918C436.838 220.705 436.652 220.541 436.416 220.428C436.18 220.311 435.914 220.253 435.619 220.253C435.306 220.253 435.034 220.317 434.801 220.445C434.568 220.572 434.389 220.753 434.264 220.986C434.139 221.219 434.076 221.491 434.076 221.804H432.819C432.819 221.273 432.941 220.808 433.186 220.411C433.43 220.013 433.765 219.705 434.191 219.486C434.618 219.264 435.102 219.153 435.645 219.153C436.193 219.153 436.676 219.263 437.093 219.482C437.514 219.697 437.842 219.993 438.078 220.368C438.314 220.74 438.431 221.161 438.431 221.629C438.431 221.953 438.37 222.27 438.248 222.58C438.129 222.889 437.92 223.234 437.622 223.615C437.324 223.993 436.909 224.452 436.377 224.991L434.643 226.807V226.871H438.572V228H432.828ZM443.498 219.273V228H442.177V220.594H442.126L440.038 221.957V220.696L442.216 219.273H443.498Z" fill="#94A3B8"/>
<rect x="429" y="45" width="16" height="161" fill="#38BDF8"/>
<rect x="405" y="114" width="16" height="92" fill="#6366F1"/>
</g>
<path d="M489.959 219.273H491.557L494.335 226.057H494.438L497.216 219.273H498.814V228H497.561V221.685H497.48L494.906 227.987H493.866L491.293 221.68H491.212V228H489.959V219.273ZM501.466 228H500.068L503.208 219.273H504.73L507.87 228H506.473L504.005 220.858H503.937L501.466 228ZM501.7 224.582H506.234V225.69H501.7V224.582ZM507.567 219.273H509.062L511.342 223.24H511.436L513.716 219.273H515.212L512.045 224.574V228H510.733V224.574L507.567 219.273ZM519.511 228V227.045L522.464 223.986C522.78 223.653 523.04 223.362 523.244 223.112C523.452 222.859 523.607 222.619 523.709 222.392C523.811 222.165 523.862 221.923 523.862 221.668C523.862 221.378 523.794 221.128 523.658 220.918C523.521 220.705 523.335 220.541 523.099 220.428C522.864 220.311 522.598 220.253 522.303 220.253C521.99 220.253 521.717 220.317 521.484 220.445C521.251 220.572 521.072 220.753 520.947 220.986C520.822 221.219 520.76 221.491 520.76 221.804H519.503C519.503 221.273 519.625 220.808 519.869 220.411C520.114 220.013 520.449 219.705 520.875 219.486C521.301 219.264 521.786 219.153 522.328 219.153C522.876 219.153 523.359 219.263 523.777 219.482C524.197 219.697 524.526 219.993 524.761 220.368C524.997 220.74 525.115 221.161 525.115 221.629C525.115 221.953 525.054 222.27 524.932 222.58C524.813 222.889 524.604 223.234 524.305 223.615C524.007 223.993 523.592 224.452 523.061 224.991L521.327 226.807V226.871H525.256V228H519.511ZM530.182 219.273V228H528.861V220.594H528.81L526.722 221.957V220.696L528.899 219.273H530.182Z" fill="#94A3B8"/>
<rect x="515" y="69" width="16" height="137" fill="#38BDF8"/>
<rect x="491" y="128" width="16" height="78" fill="#6366F1"/>
<defs>
<clipPath id="clip0_0_473">
<rect width="24" height="215" fill="white"/>
</clipPath>
<clipPath id="clip1_0_473">
<rect width="41" height="153" fill="white" transform="translate(151 81)"/>
</clipPath>
<clipPath id="clip2_0_473">
<rect width="40" height="197" fill="white" transform="translate(234 37)"/>
</clipPath>
<clipPath id="clip3_0_473">
<rect width="44" height="163" fill="white" transform="translate(319 71)"/>
</clipPath>
<clipPath id="clip4_0_473">
<rect width="40" height="189" fill="white" transform="translate(405 45)"/>
</clipPath>
</defs>
</svg>
